{
	"asset":{
		"generator":"Khronos glTF Blender I/O v4.1.63",
		"version":"2.0"
	},
	"scene":0,
	"scenes":[
		{
			"name":"Scene",
			"nodes":[
				0
			]
		}
	],
	"nodes":[
		{
			"mesh":0,
			"name":"bureau_kastm"
		}
	],
	"materials":[
		{
			"doubleSided":true,
			"name":"Material.008",
			"pbrMetallicRoughness":{
				"baseColorFactor":[
					0,
					0,
					0,
					1
				],
				"metallicFactor":0,
				"roughnessFactor":0.5
			}
		},
		{
			"doubleSided":true,
			"name":"Color",
			"pbrMetallicRoughness":{
				"baseColorFactor":[
					0.09305834025144577,
					0.09305903315544128,
					0.0930589959025383,
					1
				],
				"metallicFactor":0,
				"roughnessFactor":0.5
			}
		},
		{
			"doubleSided":true,
			"name":"Wood.001",
			"pbrMetallicRoughness":{
				"baseColorTexture":{
					"index":0
				},
				"metallicFactor":0,
				"roughnessFactor":0.5
			}
		},
		{
			"doubleSided":true,
			"name":"Color.001",
			"pbrMetallicRoughness":{
				"baseColorFactor":[
					0.09305834025144577,
					0.09305903315544128,
					0.0930589959025383,
					1
				],
				"metallicFactor":0,
				"roughnessFactor":0.5
			}
		},
		{
			"doubleSided":true,
			"name":"Wood",
			"pbrMetallicRoughness":{
				"baseColorTexture":{
					"index":1
				},
				"metallicFactor":0,
				"roughnessFactor":0.5
			}
		}
	],
	"meshes":[
		{
			"name":"tv wand.001",
			"primitives":[
				{
					"attributes":{
						"POSITION":0,
						"NORMAL":1,
						"TEXCOORD_0":2
					},
					"indices":3,
					"material":0
				},
				{
					"attributes":{
						"POSITION":4,
						"NORMAL":5,
						"TEXCOORD_0":6
					},
					"indices":7,
					"material":1
				},
				{
					"attributes":{
						"POSITION":8,
						"NORMAL":9,
						"TEXCOORD_0":10
					},
					"indices":11,
					"material":2
				},
				{
					"attributes":{
						"POSITION":12,
						"NORMAL":13,
						"TEXCOORD_0":14
					},
					"indices":15,
					"material":3
				},
				{
					"attributes":{
						"POSITION":16,
						"NORMAL":17,
						"TEXCOORD_0":18
					},
					"indices":19,
					"material":4
				}
			]
		}
	],
	"textures":[
		{
			"sampler":0,
			"source":0
		},
		{
			"sampler":0,
			"source":0
		}
	],
	"images":[
		{
			"mimeType":"image/jpeg",
			"name":"oak",
			"uri":"oak.jpg"
		}
	],
	"accessors":[
		{
			"bufferView":0,
			"componentType":5126,
			"count":1855,
			"max":[
				1667,
				1912,
				1574.5
			],
			"min":[
				48.70151901245117,
				-0.5,
				652
			],
			"type":"VEC3"
		},
		{
			"bufferView":1,
			"componentType":5126,
			"count":1855,
			"type":"VEC3"
		},
		{
			"bufferView":2,
			"componentType":5126,
			"count":1855,
			"type":"VEC2"
		},
		{
			"bufferView":3,
			"componentType":5123,
			"count":5337,
			"type":"SCALAR"
		},
		{
			"bufferView":4,
			"componentType":5126,
			"count":617,
			"max":[
				1685,
				2211,
				1571.775146484375
			],
			"min":[
				0,
				0,
				634
			],
			"type":"VEC3"
		},
		{
			"bufferView":5,
			"componentType":5126,
			"count":617,
			"type":"VEC3"
		},
		{
			"bufferView":6,
			"componentType":5126,
			"count":617,
			"type":"VEC2"
		},
		{
			"bufferView":7,
			"componentType":5123,
			"count":1392,
			"type":"SCALAR"
		},
		{
			"bufferView":8,
			"componentType":5126,
			"count":978,
			"max":[
				1667,
				1909.7672119140625,
				1599.5
			],
			"min":[
				18,
				769.5,
				652
			],
			"type":"VEC3"
		},
		{
			"bufferView":9,
			"componentType":5126,
			"count":978,
			"type":"VEC3"
		},
		{
			"bufferView":10,
			"componentType":5126,
			"count":978,
			"type":"VEC2"
		},
		{
			"bufferView":11,
			"componentType":5123,
			"count":2217,
			"type":"SCALAR"
		},
		{
			"bufferView":12,
			"componentType":5126,
			"count":268,
			"max":[
				1685,
				2211,
				400
			],
			"min":[
				0,
				0,
				0
			],
			"type":"VEC3"
		},
		{
			"bufferView":13,
			"componentType":5126,
			"count":268,
			"type":"VEC3"
		},
		{
			"bufferView":14,
			"componentType":5126,
			"count":268,
			"type":"VEC2"
		},
		{
			"bufferView":15,
			"componentType":5123,
			"count":582,
			"type":"SCALAR"
		},
		{
			"bufferView":16,
			"componentType":5126,
			"count":112,
			"max":[
				1667,
				1772.4000244140625,
				382
			],
			"min":[
				18,
				438.6000061035156,
				18
			],
			"type":"VEC3"
		},
		{
			"bufferView":17,
			"componentType":5126,
			"count":112,
			"type":"VEC3"
		},
		{
			"bufferView":18,
			"componentType":5126,
			"count":112,
			"type":"VEC2"
		},
		{
			"bufferView":19,
			"componentType":5123,
			"count":162,
			"type":"SCALAR"
		}
	],
	"bufferViews":[
		{
			"buffer":0,
			"byteLength":22260,
			"byteOffset":0,
			"target":34962
		},
		{
			"buffer":0,
			"byteLength":22260,
			"byteOffset":22260,
			"target":34962
		},
		{
			"buffer":0,
			"byteLength":14840,
			"byteOffset":44520,
			"target":34962
		},
		{
			"buffer":0,
			"byteLength":10674,
			"byteOffset":59360,
			"target":34963
		},
		{
			"buffer":0,
			"byteLength":7404,
			"byteOffset":70036,
			"target":34962
		},
		{
			"buffer":0,
			"byteLength":7404,
			"byteOffset":77440,
			"target":34962
		},
		{
			"buffer":0,
			"byteLength":4936,
			"byteOffset":84844,
			"target":34962
		},
		{
			"buffer":0,
			"byteLength":2784,
			"byteOffset":89780,
			"target":34963
		},
		{
			"buffer":0,
			"byteLength":11736,
			"byteOffset":92564,
			"target":34962
		},
		{
			"buffer":0,
			"byteLength":11736,
			"byteOffset":104300,
			"target":34962
		},
		{
			"buffer":0,
			"byteLength":7824,
			"byteOffset":116036,
			"target":34962
		},
		{
			"buffer":0,
			"byteLength":4434,
			"byteOffset":123860,
			"target":34963
		},
		{
			"buffer":0,
			"byteLength":3216,
			"byteOffset":128296,
			"target":34962
		},
		{
			"buffer":0,
			"byteLength":3216,
			"byteOffset":131512,
			"target":34962
		},
		{
			"buffer":0,
			"byteLength":2144,
			"byteOffset":134728,
			"target":34962
		},
		{
			"buffer":0,
			"byteLength":1164,
			"byteOffset":136872,
			"target":34963
		},
		{
			"buffer":0,
			"byteLength":1344,
			"byteOffset":138036,
			"target":34962
		},
		{
			"buffer":0,
			"byteLength":1344,
			"byteOffset":139380,
			"target":34962
		},
		{
			"buffer":0,
			"byteLength":896,
			"byteOffset":140724,
			"target":34962
		},
		{
			"buffer":0,
			"byteLength":324,
			"byteOffset":141620,
			"target":34963
		}
	],
	"samplers":[
		{
			"magFilter":9729,
			"minFilter":9987
		}
	],
	"buffers":[
		{
			"byteLength":141944,
			"uri":"bureau_kastm.bin"
		}
	]
}
