{
	"asset":{
		"generator":"Khronos glTF Blender I/O v4.1.63",
		"version":"2.0"
	},
	"scene":0,
	"scenes":[
		{
			"name":"Scene",
			"nodes":[
				0
			]
		}
	],
	"nodes":[
		{
			"mesh":0,
			"name":"bureaum_bedm_kast"
		}
	],
	"materials":[
		{
			"doubleSided":true,
			"name":"Color.002",
			"pbrMetallicRoughness":{
				"baseColorFactor":[
					0.09305834025144577,
					0.09305903315544128,
					0.0930589959025383,
					1
				],
				"metallicFactor":0,
				"roughnessFactor":0.5
			}
		},
		{
			"doubleSided":true,
			"name":"Wood.002",
			"pbrMetallicRoughness":{
				"baseColorTexture":{
					"index":0
				},
				"metallicFactor":0,
				"roughnessFactor":0.5
			}
		},
		{
			"doubleSided":true,
			"name":"Material.001",
			"pbrMetallicRoughness":{
				"baseColorFactor":[
					0,
					0,
					0,
					1
				],
				"metallicFactor":0,
				"roughnessFactor":0.5
			}
		},
		{
			"doubleSided":true,
			"name":"Color.003",
			"pbrMetallicRoughness":{
				"baseColorFactor":[
					0.09305834025144577,
					0.09305903315544128,
					0.0930589959025383,
					1
				],
				"metallicFactor":0,
				"roughnessFactor":0.5
			}
		},
		{
			"doubleSided":true,
			"name":"Wood.003",
			"pbrMetallicRoughness":{
				"baseColorTexture":{
					"index":1
				},
				"metallicFactor":0,
				"roughnessFactor":0.5
			}
		},
		{
			"doubleSided":true,
			"name":"Wood",
			"pbrMetallicRoughness":{
				"baseColorTexture":{
					"index":2
				},
				"metallicFactor":0,
				"roughnessFactor":0.5
			}
		},
		{
			"doubleSided":true,
			"name":"Sofa.001",
			"pbrMetallicRoughness":{
				"baseColorTexture":{
					"index":3
				},
				"metallicFactor":0,
				"roughnessFactor":0.5
			}
		},
		{
			"doubleSided":true,
			"name":"Wood.004",
			"pbrMetallicRoughness":{
				"baseColorTexture":{
					"index":4
				},
				"metallicFactor":0,
				"roughnessFactor":0.5
			}
		},
		{
			"doubleSided":true,
			"name":"Color.004",
			"pbrMetallicRoughness":{
				"metallicFactor":0,
				"roughnessFactor":0.5
			}
		},
		{
			"doubleSided":true,
			"name":"Material.002",
			"pbrMetallicRoughness":{
				"baseColorTexture":{
					"index":5
				},
				"metallicFactor":0,
				"roughnessFactor":0.5
			}
		}
	],
	"meshes":[
		{
			"name":"inloopkast 2.001",
			"primitives":[
				{
					"attributes":{
						"POSITION":0,
						"NORMAL":1,
						"TEXCOORD_0":2
					},
					"indices":3,
					"material":0
				},
				{
					"attributes":{
						"POSITION":4,
						"NORMAL":5,
						"TEXCOORD_0":6
					},
					"indices":7,
					"material":1
				},
				{
					"attributes":{
						"POSITION":8,
						"NORMAL":9,
						"TEXCOORD_0":10
					},
					"indices":11,
					"material":2
				},
				{
					"attributes":{
						"POSITION":12,
						"NORMAL":13,
						"TEXCOORD_0":14
					},
					"indices":15,
					"material":3
				},
				{
					"attributes":{
						"POSITION":16,
						"NORMAL":17,
						"TEXCOORD_0":18
					},
					"indices":19,
					"material":4
				},
				{
					"attributes":{
						"POSITION":20,
						"NORMAL":21,
						"TEXCOORD_0":22
					},
					"indices":23,
					"material":5
				},
				{
					"attributes":{
						"POSITION":24,
						"NORMAL":25,
						"TEXCOORD_0":26
					},
					"indices":27,
					"material":6
				},
				{
					"attributes":{
						"POSITION":28,
						"NORMAL":29,
						"TEXCOORD_0":30
					},
					"indices":31,
					"material":7
				},
				{
					"attributes":{
						"POSITION":32,
						"NORMAL":33,
						"TEXCOORD_0":34
					},
					"indices":35,
					"material":8
				},
				{
					"attributes":{
						"POSITION":36,
						"NORMAL":37,
						"TEXCOORD_0":38
					},
					"indices":39,
					"material":9
				}
			]
		}
	],
	"textures":[
		{
			"sampler":0,
			"source":0
		},
		{
			"sampler":0,
			"source":1
		},
		{
			"sampler":0,
			"source":0
		},
		{
			"sampler":0,
			"source":2
		},
		{
			"sampler":0,
			"source":0
		},
		{
			"sampler":0,
			"source":3
		}
	],
	"images":[
		{
			"mimeType":"image/jpeg",
			"name":"oak",
			"uri":"oak.jpg"
		},
		{
			"mimeType":"image/jpeg",
			"name":"birch",
			"uri":"birch.jpg"
		},
		{
			"mimeType":"image/jpeg",
			"name":"blue_sofa",
			"uri":"blue_sofa.jpg"
		},
		{
			"mimeType":"image/jpeg",
			"name":"mattress",
			"uri":"mattress.jpg"
		}
	],
	"accessors":[
		{
			"bufferView":0,
			"componentType":5126,
			"count":268,
			"max":[
				1685,
				2211,
				400
			],
			"min":[
				0,
				0,
				0
			],
			"type":"VEC3"
		},
		{
			"bufferView":1,
			"componentType":5126,
			"count":268,
			"type":"VEC3"
		},
		{
			"bufferView":2,
			"componentType":5126,
			"count":268,
			"type":"VEC2"
		},
		{
			"bufferView":3,
			"componentType":5123,
			"count":582,
			"type":"SCALAR"
		},
		{
			"bufferView":4,
			"componentType":5126,
			"count":112,
			"max":[
				1667,
				1772.4000244140625,
				382
			],
			"min":[
				18,
				438.6000061035156,
				18
			],
			"type":"VEC3"
		},
		{
			"bufferView":5,
			"componentType":5126,
			"count":112,
			"type":"VEC3"
		},
		{
			"bufferView":6,
			"componentType":5126,
			"count":112,
			"type":"VEC2"
		},
		{
			"bufferView":7,
			"componentType":5123,
			"count":162,
			"type":"SCALAR"
		},
		{
			"bufferView":8,
			"componentType":5126,
			"count":1463,
			"max":[
				1667,
				1912,
				3138
			],
			"min":[
				109.57893371582031,
				806,
				2768
			],
			"type":"VEC3"
		},
		{
			"bufferView":9,
			"componentType":5126,
			"count":1463,
			"type":"VEC3"
		},
		{
			"bufferView":10,
			"componentType":5126,
			"count":1463,
			"type":"VEC2"
		},
		{
			"bufferView":11,
			"componentType":5123,
			"count":3993,
			"type":"SCALAR"
		},
		{
			"bufferView":12,
			"componentType":5126,
			"count":587,
			"max":[
				1685,
				2211,
				3150
			],
			"min":[
				0,
				0,
				2750
			],
			"type":"VEC3"
		},
		{
			"bufferView":13,
			"componentType":5126,
			"count":587,
			"type":"VEC3"
		},
		{
			"bufferView":14,
			"componentType":5126,
			"count":587,
			"type":"VEC2"
		},
		{
			"bufferView":15,
			"componentType":5123,
			"count":1320,
			"type":"SCALAR"
		},
		{
			"bufferView":16,
			"componentType":5126,
			"count":855,
			"max":[
				1667,
				1909.7672119140625,
				3150.5
			],
			"min":[
				18,
				769.5,
				2768
			],
			"type":"VEC3"
		},
		{
			"bufferView":17,
			"componentType":5126,
			"count":855,
			"type":"VEC3"
		},
		{
			"bufferView":18,
			"componentType":5126,
			"count":855,
			"type":"VEC2"
		},
		{
			"bufferView":19,
			"componentType":5123,
			"count":1884,
			"type":"SCALAR"
		},
		{
			"bufferView":20,
			"componentType":5126,
			"count":647,
			"max":[
				1657,
				778,
				3150
			],
			"min":[
				18,
				213,
				3132
			],
			"type":"VEC3"
		},
		{
			"bufferView":21,
			"componentType":5126,
			"count":647,
			"type":"VEC3"
		},
		{
			"bufferView":22,
			"componentType":5126,
			"count":647,
			"type":"VEC2"
		},
		{
			"bufferView":23,
			"componentType":5123,
			"count":1032,
			"type":"SCALAR"
		},
		{
			"bufferView":24,
			"componentType":5126,
			"count":79387,
			"max":[
				1688.22509765625,
				2193,
				2732
			],
			"min":[
				-1.77490234375,
				0,
				566.5
			],
			"type":"VEC3"
		},
		{
			"bufferView":25,
			"componentType":5126,
			"count":79387,
			"type":"VEC3"
		},
		{
			"bufferView":26,
			"componentType":5126,
			"count":79387,
			"type":"VEC2"
		},
		{
			"bufferView":27,
			"componentType":5125,
			"count":86784,
			"type":"SCALAR"
		},
		{
			"bufferView":28,
			"componentType":5126,
			"count":64,
			"max":[
				1667,
				289.71044921875,
				2716.5
			],
			"min":[
				22,
				-0.2895561158657074,
				548.5
			],
			"type":"VEC3"
		},
		{
			"bufferView":29,
			"componentType":5126,
			"count":64,
			"type":"VEC3"
		},
		{
			"bufferView":30,
			"componentType":5126,
			"count":64,
			"type":"VEC2"
		},
		{
			"bufferView":31,
			"componentType":5123,
			"count":144,
			"type":"SCALAR"
		},
		{
			"bufferView":32,
			"componentType":5126,
			"count":184,
			"max":[
				1685,
				2211,
				2750
			],
			"min":[
				0,
				0,
				2350
			],
			"type":"VEC3"
		},
		{
			"bufferView":33,
			"componentType":5126,
			"count":184,
			"type":"VEC3"
		},
		{
			"bufferView":34,
			"componentType":5126,
			"count":184,
			"type":"VEC2"
		},
		{
			"bufferView":35,
			"componentType":5123,
			"count":414,
			"type":"SCALAR"
		},
		{
			"bufferView":36,
			"componentType":5126,
			"count":10816,
			"max":[
				1629.22509765625,
				490,
				2672.172119140625
			],
			"min":[
				38.22509765625,
				290,
				582.172119140625
			],
			"type":"VEC3"
		},
		{
			"bufferView":37,
			"componentType":5126,
			"count":10816,
			"type":"VEC3"
		},
		{
			"bufferView":38,
			"componentType":5126,
			"count":10816,
			"type":"VEC2"
		},
		{
			"bufferView":39,
			"componentType":5123,
			"count":11502,
			"type":"SCALAR"
		}
	],
	"bufferViews":[
		{
			"buffer":0,
			"byteLength":3216,
			"byteOffset":0,
			"target":34962
		},
		{
			"buffer":0,
			"byteLength":3216,
			"byteOffset":3216,
			"target":34962
		},
		{
			"buffer":0,
			"byteLength":2144,
			"byteOffset":6432,
			"target":34962
		},
		{
			"buffer":0,
			"byteLength":1164,
			"byteOffset":8576,
			"target":34963
		},
		{
			"buffer":0,
			"byteLength":1344,
			"byteOffset":9740,
			"target":34962
		},
		{
			"buffer":0,
			"byteLength":1344,
			"byteOffset":11084,
			"target":34962
		},
		{
			"buffer":0,
			"byteLength":896,
			"byteOffset":12428,
			"target":34962
		},
		{
			"buffer":0,
			"byteLength":324,
			"byteOffset":13324,
			"target":34963
		},
		{
			"buffer":0,
			"byteLength":17556,
			"byteOffset":13648,
			"target":34962
		},
		{
			"buffer":0,
			"byteLength":17556,
			"byteOffset":31204,
			"target":34962
		},
		{
			"buffer":0,
			"byteLength":11704,
			"byteOffset":48760,
			"target":34962
		},
		{
			"buffer":0,
			"byteLength":7986,
			"byteOffset":60464,
			"target":34963
		},
		{
			"buffer":0,
			"byteLength":7044,
			"byteOffset":68452,
			"target":34962
		},
		{
			"buffer":0,
			"byteLength":7044,
			"byteOffset":75496,
			"target":34962
		},
		{
			"buffer":0,
			"byteLength":4696,
			"byteOffset":82540,
			"target":34962
		},
		{
			"buffer":0,
			"byteLength":2640,
			"byteOffset":87236,
			"target":34963
		},
		{
			"buffer":0,
			"byteLength":10260,
			"byteOffset":89876,
			"target":34962
		},
		{
			"buffer":0,
			"byteLength":10260,
			"byteOffset":100136,
			"target":34962
		},
		{
			"buffer":0,
			"byteLength":6840,
			"byteOffset":110396,
			"target":34962
		},
		{
			"buffer":0,
			"byteLength":3768,
			"byteOffset":117236,
			"target":34963
		},
		{
			"buffer":0,
			"byteLength":7764,
			"byteOffset":121004,
			"target":34962
		},
		{
			"buffer":0,
			"byteLength":7764,
			"byteOffset":128768,
			"target":34962
		},
		{
			"buffer":0,
			"byteLength":5176,
			"byteOffset":136532,
			"target":34962
		},
		{
			"buffer":0,
			"byteLength":2064,
			"byteOffset":141708,
			"target":34963
		},
		{
			"buffer":0,
			"byteLength":952644,
			"byteOffset":143772,
			"target":34962
		},
		{
			"buffer":0,
			"byteLength":952644,
			"byteOffset":1096416,
			"target":34962
		},
		{
			"buffer":0,
			"byteLength":635096,
			"byteOffset":2049060,
			"target":34962
		},
		{
			"buffer":0,
			"byteLength":347136,
			"byteOffset":2684156,
			"target":34963
		},
		{
			"buffer":0,
			"byteLength":768,
			"byteOffset":3031292,
			"target":34962
		},
		{
			"buffer":0,
			"byteLength":768,
			"byteOffset":3032060,
			"target":34962
		},
		{
			"buffer":0,
			"byteLength":512,
			"byteOffset":3032828,
			"target":34962
		},
		{
			"buffer":0,
			"byteLength":288,
			"byteOffset":3033340,
			"target":34963
		},
		{
			"buffer":0,
			"byteLength":2208,
			"byteOffset":3033628,
			"target":34962
		},
		{
			"buffer":0,
			"byteLength":2208,
			"byteOffset":3035836,
			"target":34962
		},
		{
			"buffer":0,
			"byteLength":1472,
			"byteOffset":3038044,
			"target":34962
		},
		{
			"buffer":0,
			"byteLength":828,
			"byteOffset":3039516,
			"target":34963
		},
		{
			"buffer":0,
			"byteLength":129792,
			"byteOffset":3040344,
			"target":34962
		},
		{
			"buffer":0,
			"byteLength":129792,
			"byteOffset":3170136,
			"target":34962
		},
		{
			"buffer":0,
			"byteLength":86528,
			"byteOffset":3299928,
			"target":34962
		},
		{
			"buffer":0,
			"byteLength":23004,
			"byteOffset":3386456,
			"target":34963
		}
	],
	"samplers":[
		{
			"magFilter":9729,
			"minFilter":9987
		}
	],
	"buffers":[
		{
			"byteLength":3409460,
			"uri":"bureaum_bedm_kast.bin"
		}
	]
}
