{
	"asset":{
		"generator":"Khronos glTF Blender I/O v4.1.63",
		"version":"2.0"
	},
	"scene":0,
	"scenes":[
		{
			"name":"Scene",
			"nodes":[
				0
			]
		}
	],
	"nodes":[
		{
			"mesh":0,
			"name":"bureau_bedm"
		}
	],
	"materials":[
		{
			"doubleSided":true,
			"name":"Sofa.001",
			"pbrMetallicRoughness":{
				"baseColorTexture":{
					"index":0
				},
				"metallicFactor":0,
				"roughnessFactor":0.5
			}
		},
		{
			"doubleSided":true,
			"name":"Wood.004",
			"pbrMetallicRoughness":{
				"baseColorTexture":{
					"index":1
				},
				"metallicFactor":0,
				"roughnessFactor":0.5
			}
		},
		{
			"doubleSided":true,
			"name":"Color.003",
			"pbrMetallicRoughness":{
				"metallicFactor":0,
				"roughnessFactor":0.5
			}
		},
		{
			"doubleSided":true,
			"name":"Material.003",
			"pbrMetallicRoughness":{
				"baseColorTexture":{
					"index":2
				},
				"metallicFactor":0,
				"roughnessFactor":0.5
			}
		},
		{
			"doubleSided":true,
			"name":"Material.004",
			"pbrMetallicRoughness":{
				"baseColorFactor":[
					0,
					0,
					0,
					1
				],
				"metallicFactor":0,
				"roughnessFactor":0.5
			}
		},
		{
			"doubleSided":true,
			"name":"Color.004",
			"pbrMetallicRoughness":{
				"baseColorFactor":[
					0.09305834025144577,
					0.09305903315544128,
					0.0930589959025383,
					1
				],
				"metallicFactor":0,
				"roughnessFactor":0.5
			}
		},
		{
			"doubleSided":true,
			"name":"Wood.005",
			"pbrMetallicRoughness":{
				"baseColorTexture":{
					"index":3
				},
				"metallicFactor":0,
				"roughnessFactor":0.5
			}
		},
		{
			"doubleSided":true,
			"name":"Wood.006",
			"pbrMetallicRoughness":{
				"baseColorTexture":{
					"index":4
				},
				"metallicFactor":0,
				"roughnessFactor":0.5
			}
		}
	],
	"meshes":[
		{
			"name":"zetelbed wand module open.003",
			"primitives":[
				{
					"attributes":{
						"POSITION":0,
						"NORMAL":1,
						"TEXCOORD_0":2
					},
					"indices":3,
					"material":0
				},
				{
					"attributes":{
						"POSITION":4,
						"NORMAL":5,
						"TEXCOORD_0":6
					},
					"indices":7,
					"material":1
				},
				{
					"attributes":{
						"POSITION":8,
						"NORMAL":9,
						"TEXCOORD_0":10
					},
					"indices":11,
					"material":2
				},
				{
					"attributes":{
						"POSITION":12,
						"NORMAL":13,
						"TEXCOORD_0":14
					},
					"indices":15,
					"material":3
				},
				{
					"attributes":{
						"POSITION":16,
						"NORMAL":17,
						"TEXCOORD_0":18
					},
					"indices":19,
					"material":4
				},
				{
					"attributes":{
						"POSITION":20,
						"NORMAL":21,
						"TEXCOORD_0":22
					},
					"indices":23,
					"material":5
				},
				{
					"attributes":{
						"POSITION":24,
						"NORMAL":25,
						"TEXCOORD_0":26
					},
					"indices":27,
					"material":6
				},
				{
					"attributes":{
						"POSITION":28,
						"NORMAL":29,
						"TEXCOORD_0":30
					},
					"indices":31,
					"material":7
				}
			]
		}
	],
	"textures":[
		{
			"sampler":0,
			"source":0
		},
		{
			"sampler":0,
			"source":1
		},
		{
			"sampler":0,
			"source":2
		},
		{
			"sampler":0,
			"source":1
		},
		{
			"sampler":0,
			"source":1
		}
	],
	"images":[
		{
			"mimeType":"image/jpeg",
			"name":"blue_sofa",
			"uri":"blue_sofa.jpg"
		},
		{
			"mimeType":"image/jpeg",
			"name":"oak",
			"uri":"oak.jpg"
		},
		{
			"mimeType":"image/jpeg",
			"name":"mattress",
			"uri":"mattress.jpg"
		}
	],
	"accessors":[
		{
			"bufferView":0,
			"componentType":5126,
			"count":75965,
			"max":[
				1688.22509765625,
				2193,
				2183.5
			],
			"min":[
				-1.77490234375,
				0,
				18.000003814697266
			],
			"type":"VEC3"
		},
		{
			"bufferView":1,
			"componentType":5126,
			"count":75965,
			"type":"VEC3"
		},
		{
			"bufferView":2,
			"componentType":5126,
			"count":75965,
			"type":"VEC2"
		},
		{
			"bufferView":3,
			"componentType":5125,
			"count":86784,
			"type":"SCALAR"
		},
		{
			"bufferView":4,
			"componentType":5126,
			"count":64,
			"max":[
				1667,
				289.71044921875,
				2201.5
			],
			"min":[
				22,
				-0.2895561158657074,
				33.500003814697266
			],
			"type":"VEC3"
		},
		{
			"bufferView":5,
			"componentType":5126,
			"count":64,
			"type":"VEC3"
		},
		{
			"bufferView":6,
			"componentType":5126,
			"count":64,
			"type":"VEC2"
		},
		{
			"bufferView":7,
			"componentType":5123,
			"count":144,
			"type":"SCALAR"
		},
		{
			"bufferView":8,
			"componentType":5126,
			"count":184,
			"max":[
				1685,
				2211,
				400
			],
			"min":[
				0,
				0,
				0
			],
			"type":"VEC3"
		},
		{
			"bufferView":9,
			"componentType":5126,
			"count":184,
			"type":"VEC3"
		},
		{
			"bufferView":10,
			"componentType":5126,
			"count":184,
			"type":"VEC2"
		},
		{
			"bufferView":11,
			"componentType":5123,
			"count":414,
			"type":"SCALAR"
		},
		{
			"bufferView":12,
			"componentType":5126,
			"count":10564,
			"max":[
				1629.22509765625,
				490,
				2167.827880859375
			],
			"min":[
				38.22509765625,
				290,
				77.82795715332031
			],
			"type":"VEC3"
		},
		{
			"bufferView":13,
			"componentType":5126,
			"count":10564,
			"type":"VEC3"
		},
		{
			"bufferView":14,
			"componentType":5126,
			"count":10564,
			"type":"VEC2"
		},
		{
			"bufferView":15,
			"componentType":5123,
			"count":11502,
			"type":"SCALAR"
		},
		{
			"bufferView":16,
			"componentType":5126,
			"count":1608,
			"max":[
				1667,
				1912,
				2738
			],
			"min":[
				109.57893371582031,
				806,
				2368
			],
			"type":"VEC3"
		},
		{
			"bufferView":17,
			"componentType":5126,
			"count":1608,
			"type":"VEC3"
		},
		{
			"bufferView":18,
			"componentType":5126,
			"count":1608,
			"type":"VEC2"
		},
		{
			"bufferView":19,
			"componentType":5123,
			"count":3993,
			"type":"SCALAR"
		},
		{
			"bufferView":20,
			"componentType":5126,
			"count":717,
			"max":[
				1685,
				2211,
				2750
			],
			"min":[
				0,
				0,
				2350
			],
			"type":"VEC3"
		},
		{
			"bufferView":21,
			"componentType":5126,
			"count":717,
			"type":"VEC3"
		},
		{
			"bufferView":22,
			"componentType":5126,
			"count":717,
			"type":"VEC2"
		},
		{
			"bufferView":23,
			"componentType":5123,
			"count":1320,
			"type":"SCALAR"
		},
		{
			"bufferView":24,
			"componentType":5126,
			"count":979,
			"max":[
				1667,
				1909.7672119140625,
				2750.5
			],
			"min":[
				18,
				769.5,
				2368
			],
			"type":"VEC3"
		},
		{
			"bufferView":25,
			"componentType":5126,
			"count":979,
			"type":"VEC3"
		},
		{
			"bufferView":26,
			"componentType":5126,
			"count":979,
			"type":"VEC2"
		},
		{
			"bufferView":27,
			"componentType":5123,
			"count":1884,
			"type":"SCALAR"
		},
		{
			"bufferView":28,
			"componentType":5126,
			"count":625,
			"max":[
				1657,
				778,
				2750
			],
			"min":[
				18,
				213,
				2732
			],
			"type":"VEC3"
		},
		{
			"bufferView":29,
			"componentType":5126,
			"count":625,
			"type":"VEC3"
		},
		{
			"bufferView":30,
			"componentType":5126,
			"count":625,
			"type":"VEC2"
		},
		{
			"bufferView":31,
			"componentType":5123,
			"count":1032,
			"type":"SCALAR"
		}
	],
	"bufferViews":[
		{
			"buffer":0,
			"byteLength":911580,
			"byteOffset":0,
			"target":34962
		},
		{
			"buffer":0,
			"byteLength":911580,
			"byteOffset":911580,
			"target":34962
		},
		{
			"buffer":0,
			"byteLength":607720,
			"byteOffset":1823160,
			"target":34962
		},
		{
			"buffer":0,
			"byteLength":347136,
			"byteOffset":2430880,
			"target":34963
		},
		{
			"buffer":0,
			"byteLength":768,
			"byteOffset":2778016,
			"target":34962
		},
		{
			"buffer":0,
			"byteLength":768,
			"byteOffset":2778784,
			"target":34962
		},
		{
			"buffer":0,
			"byteLength":512,
			"byteOffset":2779552,
			"target":34962
		},
		{
			"buffer":0,
			"byteLength":288,
			"byteOffset":2780064,
			"target":34963
		},
		{
			"buffer":0,
			"byteLength":2208,
			"byteOffset":2780352,
			"target":34962
		},
		{
			"buffer":0,
			"byteLength":2208,
			"byteOffset":2782560,
			"target":34962
		},
		{
			"buffer":0,
			"byteLength":1472,
			"byteOffset":2784768,
			"target":34962
		},
		{
			"buffer":0,
			"byteLength":828,
			"byteOffset":2786240,
			"target":34963
		},
		{
			"buffer":0,
			"byteLength":126768,
			"byteOffset":2787068,
			"target":34962
		},
		{
			"buffer":0,
			"byteLength":126768,
			"byteOffset":2913836,
			"target":34962
		},
		{
			"buffer":0,
			"byteLength":84512,
			"byteOffset":3040604,
			"target":34962
		},
		{
			"buffer":0,
			"byteLength":23004,
			"byteOffset":3125116,
			"target":34963
		},
		{
			"buffer":0,
			"byteLength":19296,
			"byteOffset":3148120,
			"target":34962
		},
		{
			"buffer":0,
			"byteLength":19296,
			"byteOffset":3167416,
			"target":34962
		},
		{
			"buffer":0,
			"byteLength":12864,
			"byteOffset":3186712,
			"target":34962
		},
		{
			"buffer":0,
			"byteLength":7986,
			"byteOffset":3199576,
			"target":34963
		},
		{
			"buffer":0,
			"byteLength":8604,
			"byteOffset":3207564,
			"target":34962
		},
		{
			"buffer":0,
			"byteLength":8604,
			"byteOffset":3216168,
			"target":34962
		},
		{
			"buffer":0,
			"byteLength":5736,
			"byteOffset":3224772,
			"target":34962
		},
		{
			"buffer":0,
			"byteLength":2640,
			"byteOffset":3230508,
			"target":34963
		},
		{
			"buffer":0,
			"byteLength":11748,
			"byteOffset":3233148,
			"target":34962
		},
		{
			"buffer":0,
			"byteLength":11748,
			"byteOffset":3244896,
			"target":34962
		},
		{
			"buffer":0,
			"byteLength":7832,
			"byteOffset":3256644,
			"target":34962
		},
		{
			"buffer":0,
			"byteLength":3768,
			"byteOffset":3264476,
			"target":34963
		},
		{
			"buffer":0,
			"byteLength":7500,
			"byteOffset":3268244,
			"target":34962
		},
		{
			"buffer":0,
			"byteLength":7500,
			"byteOffset":3275744,
			"target":34962
		},
		{
			"buffer":0,
			"byteLength":5000,
			"byteOffset":3283244,
			"target":34962
		},
		{
			"buffer":0,
			"byteLength":2064,
			"byteOffset":3288244,
			"target":34963
		}
	],
	"samplers":[
		{
			"magFilter":9729,
			"minFilter":9987
		}
	],
	"buffers":[
		{
			"byteLength":3290308,
			"uri":"bureau_bedm.bin"
		}
	]
}
