{
	"asset":{
		"generator":"Khronos glTF Blender I/O v4.1.63",
		"version":"2.0"
	},
	"scene":0,
	"scenes":[
		{
			"name":"Scene",
			"nodes":[
				0
			]
		}
	],
	"nodes":[
		{
			"mesh":0,
			"name":"bureaum_kastm_kast"
		}
	],
	"materials":[
		{
			"doubleSided":true,
			"name":"Color.017",
			"pbrMetallicRoughness":{
				"baseColorFactor":[
					0.09305834025144577,
					0.09305903315544128,
					0.0930589959025383,
					1
				],
				"metallicFactor":0,
				"roughnessFactor":0.5
			}
		},
		{
			"doubleSided":true,
			"name":"Wood.019",
			"pbrMetallicRoughness":{
				"baseColorTexture":{
					"index":0
				},
				"metallicFactor":0,
				"roughnessFactor":0.5
			}
		},
		{
			"doubleSided":true,
			"name":"Material.007",
			"pbrMetallicRoughness":{
				"baseColorFactor":[
					0,
					0,
					0,
					1
				],
				"metallicFactor":0,
				"roughnessFactor":0.5
			}
		},
		{
			"doubleSided":true,
			"name":"Color.018",
			"pbrMetallicRoughness":{
				"baseColorFactor":[
					0.09305834025144577,
					0.09305903315544128,
					0.0930589959025383,
					1
				],
				"metallicFactor":0,
				"roughnessFactor":0.5
			}
		},
		{
			"doubleSided":true,
			"name":"Wood.020",
			"pbrMetallicRoughness":{
				"baseColorTexture":{
					"index":1
				},
				"metallicFactor":0,
				"roughnessFactor":0.5
			}
		},
		{
			"doubleSided":true,
			"name":"Color.019",
			"pbrMetallicRoughness":{
				"baseColorFactor":[
					0.09305834025144577,
					0.09305903315544128,
					0.0930589959025383,
					1
				],
				"metallicFactor":0,
				"roughnessFactor":0.5
			}
		},
		{
			"doubleSided":true,
			"name":"Wood.021",
			"pbrMetallicRoughness":{
				"baseColorTexture":{
					"index":2
				},
				"metallicFactor":0,
				"roughnessFactor":0.5
			}
		}
	],
	"meshes":[
		{
			"name":"Inloopkast 1.002",
			"primitives":[
				{
					"attributes":{
						"POSITION":0,
						"NORMAL":1,
						"TEXCOORD_0":2
					},
					"indices":3,
					"material":0
				},
				{
					"attributes":{
						"POSITION":4,
						"NORMAL":5,
						"TEXCOORD_0":6
					},
					"indices":7,
					"material":1
				},
				{
					"attributes":{
						"POSITION":8,
						"NORMAL":9,
						"TEXCOORD_0":10
					},
					"indices":11,
					"material":2
				},
				{
					"attributes":{
						"POSITION":12,
						"NORMAL":13,
						"TEXCOORD_0":14
					},
					"indices":15,
					"material":3
				},
				{
					"attributes":{
						"POSITION":16,
						"NORMAL":17,
						"TEXCOORD_0":18
					},
					"indices":19,
					"material":4
				},
				{
					"attributes":{
						"POSITION":20,
						"NORMAL":21,
						"TEXCOORD_0":22
					},
					"indices":23,
					"material":5
				},
				{
					"attributes":{
						"POSITION":24,
						"NORMAL":25,
						"TEXCOORD_0":26
					},
					"indices":27,
					"material":6
				}
			]
		}
	],
	"textures":[
		{
			"sampler":0,
			"source":0
		},
		{
			"sampler":0,
			"source":1
		},
		{
			"sampler":0,
			"source":0
		}
	],
	"images":[
		{
			"mimeType":"image/jpeg",
			"name":"oak",
			"uri":"oak.jpg"
		},
		{
			"mimeType":"image/jpeg",
			"name":"birch",
			"uri":"birch.jpg"
		}
	],
	"accessors":[
		{
			"bufferView":0,
			"componentType":5126,
			"count":154,
			"max":[
				1685,
				2211,
				400
			],
			"min":[
				0,
				0,
				0
			],
			"type":"VEC3"
		},
		{
			"bufferView":1,
			"componentType":5126,
			"count":154,
			"type":"VEC3"
		},
		{
			"bufferView":2,
			"componentType":5126,
			"count":154,
			"type":"VEC2"
		},
		{
			"bufferView":3,
			"componentType":5123,
			"count":687,
			"type":"SCALAR"
		},
		{
			"bufferView":4,
			"componentType":5126,
			"count":143,
			"max":[
				1685,
				2018,
				391
			],
			"min":[
				18,
				282,
				0
			],
			"type":"VEC3"
		},
		{
			"bufferView":5,
			"componentType":5126,
			"count":143,
			"type":"VEC3"
		},
		{
			"bufferView":6,
			"componentType":5126,
			"count":143,
			"type":"VEC2"
		},
		{
			"bufferView":7,
			"componentType":5123,
			"count":219,
			"type":"SCALAR"
		},
		{
			"bufferView":8,
			"componentType":5126,
			"count":1864,
			"max":[
				1667,
				1912,
				3124.5
			],
			"min":[
				48.70151901245117,
				-0.5,
				2202
			],
			"type":"VEC3"
		},
		{
			"bufferView":9,
			"componentType":5126,
			"count":1864,
			"type":"VEC3"
		},
		{
			"bufferView":10,
			"componentType":5126,
			"count":1864,
			"type":"VEC2"
		},
		{
			"bufferView":11,
			"componentType":5123,
			"count":5337,
			"type":"SCALAR"
		},
		{
			"bufferView":12,
			"componentType":5126,
			"count":617,
			"max":[
				1685,
				2211,
				3121.775146484375
			],
			"min":[
				0,
				0,
				2184
			],
			"type":"VEC3"
		},
		{
			"bufferView":13,
			"componentType":5126,
			"count":617,
			"type":"VEC3"
		},
		{
			"bufferView":14,
			"componentType":5126,
			"count":617,
			"type":"VEC2"
		},
		{
			"bufferView":15,
			"componentType":5123,
			"count":1392,
			"type":"SCALAR"
		},
		{
			"bufferView":16,
			"componentType":5126,
			"count":978,
			"max":[
				1667,
				1909.7672119140625,
				3149.5
			],
			"min":[
				18,
				769.5,
				2202
			],
			"type":"VEC3"
		},
		{
			"bufferView":17,
			"componentType":5126,
			"count":978,
			"type":"VEC3"
		},
		{
			"bufferView":18,
			"componentType":5126,
			"count":978,
			"type":"VEC2"
		},
		{
			"bufferView":19,
			"componentType":5123,
			"count":2217,
			"type":"SCALAR"
		},
		{
			"bufferView":20,
			"componentType":5126,
			"count":268,
			"max":[
				1685,
				2211,
				2184
			],
			"min":[
				0,
				0,
				1784
			],
			"type":"VEC3"
		},
		{
			"bufferView":21,
			"componentType":5126,
			"count":268,
			"type":"VEC3"
		},
		{
			"bufferView":22,
			"componentType":5126,
			"count":268,
			"type":"VEC2"
		},
		{
			"bufferView":23,
			"componentType":5123,
			"count":582,
			"type":"SCALAR"
		},
		{
			"bufferView":24,
			"componentType":5126,
			"count":112,
			"max":[
				1667,
				1772.4000244140625,
				2166
			],
			"min":[
				18,
				438.6000061035156,
				1802
			],
			"type":"VEC3"
		},
		{
			"bufferView":25,
			"componentType":5126,
			"count":112,
			"type":"VEC3"
		},
		{
			"bufferView":26,
			"componentType":5126,
			"count":112,
			"type":"VEC2"
		},
		{
			"bufferView":27,
			"componentType":5123,
			"count":162,
			"type":"SCALAR"
		}
	],
	"bufferViews":[
		{
			"buffer":0,
			"byteLength":1848,
			"byteOffset":0,
			"target":34962
		},
		{
			"buffer":0,
			"byteLength":1848,
			"byteOffset":1848,
			"target":34962
		},
		{
			"buffer":0,
			"byteLength":1232,
			"byteOffset":3696,
			"target":34962
		},
		{
			"buffer":0,
			"byteLength":1374,
			"byteOffset":4928,
			"target":34963
		},
		{
			"buffer":0,
			"byteLength":1716,
			"byteOffset":6304,
			"target":34962
		},
		{
			"buffer":0,
			"byteLength":1716,
			"byteOffset":8020,
			"target":34962
		},
		{
			"buffer":0,
			"byteLength":1144,
			"byteOffset":9736,
			"target":34962
		},
		{
			"buffer":0,
			"byteLength":438,
			"byteOffset":10880,
			"target":34963
		},
		{
			"buffer":0,
			"byteLength":22368,
			"byteOffset":11320,
			"target":34962
		},
		{
			"buffer":0,
			"byteLength":22368,
			"byteOffset":33688,
			"target":34962
		},
		{
			"buffer":0,
			"byteLength":14912,
			"byteOffset":56056,
			"target":34962
		},
		{
			"buffer":0,
			"byteLength":10674,
			"byteOffset":70968,
			"target":34963
		},
		{
			"buffer":0,
			"byteLength":7404,
			"byteOffset":81644,
			"target":34962
		},
		{
			"buffer":0,
			"byteLength":7404,
			"byteOffset":89048,
			"target":34962
		},
		{
			"buffer":0,
			"byteLength":4936,
			"byteOffset":96452,
			"target":34962
		},
		{
			"buffer":0,
			"byteLength":2784,
			"byteOffset":101388,
			"target":34963
		},
		{
			"buffer":0,
			"byteLength":11736,
			"byteOffset":104172,
			"target":34962
		},
		{
			"buffer":0,
			"byteLength":11736,
			"byteOffset":115908,
			"target":34962
		},
		{
			"buffer":0,
			"byteLength":7824,
			"byteOffset":127644,
			"target":34962
		},
		{
			"buffer":0,
			"byteLength":4434,
			"byteOffset":135468,
			"target":34963
		},
		{
			"buffer":0,
			"byteLength":3216,
			"byteOffset":139904,
			"target":34962
		},
		{
			"buffer":0,
			"byteLength":3216,
			"byteOffset":143120,
			"target":34962
		},
		{
			"buffer":0,
			"byteLength":2144,
			"byteOffset":146336,
			"target":34962
		},
		{
			"buffer":0,
			"byteLength":1164,
			"byteOffset":148480,
			"target":34963
		},
		{
			"buffer":0,
			"byteLength":1344,
			"byteOffset":149644,
			"target":34962
		},
		{
			"buffer":0,
			"byteLength":1344,
			"byteOffset":150988,
			"target":34962
		},
		{
			"buffer":0,
			"byteLength":896,
			"byteOffset":152332,
			"target":34962
		},
		{
			"buffer":0,
			"byteLength":324,
			"byteOffset":153228,
			"target":34963
		}
	],
	"samplers":[
		{
			"magFilter":9729,
			"minFilter":9987
		}
	],
	"buffers":[
		{
			"byteLength":153552,
			"uri":"bureaum_kastm_kast.bin"
		}
	]
}
