{
	"asset":{
		"generator":"Khronos glTF Blender I/O v4.1.63",
		"version":"2.0"
	},
	"scene":0,
	"scenes":[
		{
			"name":"Scene",
			"nodes":[
				0
			]
		}
	],
	"nodes":[
		{
			"mesh":0,
			"name":"bureaum_bedm_kastm_kast"
		}
	],
	"materials":[
		{
			"doubleSided":true,
			"name":"Color.017",
			"pbrMetallicRoughness":{
				"baseColorFactor":[
					0.09305834025144577,
					0.09305903315544128,
					0.0930589959025383,
					1
				],
				"metallicFactor":0,
				"roughnessFactor":0.5
			}
		},
		{
			"doubleSided":true,
			"name":"Wood.019",
			"pbrMetallicRoughness":{
				"baseColorTexture":{
					"index":0
				},
				"metallicFactor":0,
				"roughnessFactor":0.5
			}
		},
		{
			"doubleSided":true,
			"name":"Color.019",
			"pbrMetallicRoughness":{
				"baseColorFactor":[
					0.09305834025144577,
					0.09305903315544128,
					0.0930589959025383,
					1
				],
				"metallicFactor":0,
				"roughnessFactor":0.5
			}
		},
		{
			"doubleSided":true,
			"name":"Wood.021",
			"pbrMetallicRoughness":{
				"baseColorTexture":{
					"index":1
				},
				"metallicFactor":0,
				"roughnessFactor":0.5
			}
		},
		{
			"doubleSided":true,
			"name":"Sofa.003",
			"pbrMetallicRoughness":{
				"baseColorTexture":{
					"index":2
				},
				"metallicFactor":0,
				"roughnessFactor":0.5
			}
		},
		{
			"doubleSided":true,
			"name":"Wood.022",
			"pbrMetallicRoughness":{
				"baseColorTexture":{
					"index":3
				},
				"metallicFactor":0,
				"roughnessFactor":0.5
			}
		},
		{
			"doubleSided":true,
			"name":"Color.020",
			"pbrMetallicRoughness":{
				"metallicFactor":0,
				"roughnessFactor":0.5
			}
		},
		{
			"doubleSided":true,
			"name":"Material.009",
			"pbrMetallicRoughness":{
				"baseColorTexture":{
					"index":4
				},
				"metallicFactor":0,
				"roughnessFactor":0.5
			}
		},
		{
			"doubleSided":true,
			"name":"Material.010",
			"pbrMetallicRoughness":{
				"baseColorFactor":[
					0,
					0,
					0,
					1
				],
				"metallicFactor":0,
				"roughnessFactor":0.5
			}
		},
		{
			"doubleSided":true,
			"name":"Color.021",
			"pbrMetallicRoughness":{
				"baseColorFactor":[
					0.09305834025144577,
					0.09305903315544128,
					0.0930589959025383,
					1
				],
				"metallicFactor":0,
				"roughnessFactor":0.5
			}
		},
		{
			"doubleSided":true,
			"name":"Wood.023",
			"pbrMetallicRoughness":{
				"baseColorTexture":{
					"index":5
				},
				"metallicFactor":0,
				"roughnessFactor":0.5
			}
		},
		{
			"doubleSided":true,
			"name":"Wood.024",
			"pbrMetallicRoughness":{
				"baseColorTexture":{
					"index":6
				},
				"metallicFactor":0,
				"roughnessFactor":0.5
			}
		}
	],
	"meshes":[
		{
			"name":"Inloopkast 1.002",
			"primitives":[
				{
					"attributes":{
						"POSITION":0,
						"NORMAL":1,
						"TEXCOORD_0":2
					},
					"indices":3,
					"material":0
				},
				{
					"attributes":{
						"POSITION":4,
						"NORMAL":5,
						"TEXCOORD_0":6
					},
					"indices":7,
					"material":1
				},
				{
					"attributes":{
						"POSITION":8,
						"NORMAL":9,
						"TEXCOORD_0":10
					},
					"indices":11,
					"material":2
				},
				{
					"attributes":{
						"POSITION":12,
						"NORMAL":13,
						"TEXCOORD_0":14
					},
					"indices":15,
					"material":3
				},
				{
					"attributes":{
						"POSITION":16,
						"NORMAL":17,
						"TEXCOORD_0":18
					},
					"indices":19,
					"material":4
				},
				{
					"attributes":{
						"POSITION":20,
						"NORMAL":21,
						"TEXCOORD_0":22
					},
					"indices":23,
					"material":5
				},
				{
					"attributes":{
						"POSITION":24,
						"NORMAL":25,
						"TEXCOORD_0":26
					},
					"indices":27,
					"material":6
				},
				{
					"attributes":{
						"POSITION":28,
						"NORMAL":29,
						"TEXCOORD_0":30
					},
					"indices":31,
					"material":7
				},
				{
					"attributes":{
						"POSITION":32,
						"NORMAL":33,
						"TEXCOORD_0":34
					},
					"indices":35,
					"material":8
				},
				{
					"attributes":{
						"POSITION":36,
						"NORMAL":37,
						"TEXCOORD_0":38
					},
					"indices":39,
					"material":9
				},
				{
					"attributes":{
						"POSITION":40,
						"NORMAL":41,
						"TEXCOORD_0":42
					},
					"indices":43,
					"material":10
				},
				{
					"attributes":{
						"POSITION":44,
						"NORMAL":45,
						"TEXCOORD_0":46
					},
					"indices":47,
					"material":11
				}
			]
		}
	],
	"textures":[
		{
			"sampler":0,
			"source":0
		},
		{
			"sampler":0,
			"source":0
		},
		{
			"sampler":0,
			"source":1
		},
		{
			"sampler":0,
			"source":0
		},
		{
			"sampler":0,
			"source":2
		},
		{
			"sampler":0,
			"source":0
		},
		{
			"sampler":0,
			"source":0
		}
	],
	"images":[
		{
			"mimeType":"image/jpeg",
			"name":"oak",
			"uri":"oak.jpg"
		},
		{
			"mimeType":"image/jpeg",
			"name":"blue_sofa",
			"uri":"blue_sofa.jpg"
		},
		{
			"mimeType":"image/jpeg",
			"name":"mattress",
			"uri":"mattress.jpg"
		}
	],
	"accessors":[
		{
			"bufferView":0,
			"componentType":5126,
			"count":154,
			"max":[
				1685,
				2211,
				400
			],
			"min":[
				0,
				0,
				0
			],
			"type":"VEC3"
		},
		{
			"bufferView":1,
			"componentType":5126,
			"count":154,
			"type":"VEC3"
		},
		{
			"bufferView":2,
			"componentType":5126,
			"count":154,
			"type":"VEC2"
		},
		{
			"bufferView":3,
			"componentType":5123,
			"count":687,
			"type":"SCALAR"
		},
		{
			"bufferView":4,
			"componentType":5126,
			"count":143,
			"max":[
				1685,
				2018,
				391
			],
			"min":[
				18,
				282,
				0
			],
			"type":"VEC3"
		},
		{
			"bufferView":5,
			"componentType":5126,
			"count":143,
			"type":"VEC3"
		},
		{
			"bufferView":6,
			"componentType":5126,
			"count":143,
			"type":"VEC2"
		},
		{
			"bufferView":7,
			"componentType":5123,
			"count":219,
			"type":"SCALAR"
		},
		{
			"bufferView":8,
			"componentType":5126,
			"count":268,
			"max":[
				1685,
				2211,
				800
			],
			"min":[
				0,
				0,
				400
			],
			"type":"VEC3"
		},
		{
			"bufferView":9,
			"componentType":5126,
			"count":268,
			"type":"VEC3"
		},
		{
			"bufferView":10,
			"componentType":5126,
			"count":268,
			"type":"VEC2"
		},
		{
			"bufferView":11,
			"componentType":5123,
			"count":582,
			"type":"SCALAR"
		},
		{
			"bufferView":12,
			"componentType":5126,
			"count":112,
			"max":[
				1667,
				1772.4000244140625,
				782
			],
			"min":[
				18,
				438.6000061035156,
				418
			],
			"type":"VEC3"
		},
		{
			"bufferView":13,
			"componentType":5126,
			"count":112,
			"type":"VEC3"
		},
		{
			"bufferView":14,
			"componentType":5126,
			"count":112,
			"type":"VEC2"
		},
		{
			"bufferView":15,
			"componentType":5123,
			"count":162,
			"type":"SCALAR"
		},
		{
			"bufferView":16,
			"componentType":5126,
			"count":79835,
			"max":[
				1688.22509765625,
				2193,
				3132
			],
			"min":[
				-1.77490234375,
				0,
				966.5
			],
			"type":"VEC3"
		},
		{
			"bufferView":17,
			"componentType":5126,
			"count":79835,
			"type":"VEC3"
		},
		{
			"bufferView":18,
			"componentType":5126,
			"count":79835,
			"type":"VEC2"
		},
		{
			"bufferView":19,
			"componentType":5125,
			"count":86784,
			"type":"SCALAR"
		},
		{
			"bufferView":20,
			"componentType":5126,
			"count":64,
			"max":[
				1667,
				289.71044921875,
				3116.5
			],
			"min":[
				22,
				-0.2895561158657074,
				948.5
			],
			"type":"VEC3"
		},
		{
			"bufferView":21,
			"componentType":5126,
			"count":64,
			"type":"VEC3"
		},
		{
			"bufferView":22,
			"componentType":5126,
			"count":64,
			"type":"VEC2"
		},
		{
			"bufferView":23,
			"componentType":5123,
			"count":144,
			"type":"SCALAR"
		},
		{
			"bufferView":24,
			"componentType":5126,
			"count":184,
			"max":[
				1685,
				2211,
				3150
			],
			"min":[
				0,
				0,
				2750
			],
			"type":"VEC3"
		},
		{
			"bufferView":25,
			"componentType":5126,
			"count":184,
			"type":"VEC3"
		},
		{
			"bufferView":26,
			"componentType":5126,
			"count":184,
			"type":"VEC2"
		},
		{
			"bufferView":27,
			"componentType":5123,
			"count":414,
			"type":"SCALAR"
		},
		{
			"bufferView":28,
			"componentType":5126,
			"count":10845,
			"max":[
				1629.22509765625,
				490,
				3072.172119140625
			],
			"min":[
				38.22509765625,
				290,
				982.172119140625
			],
			"type":"VEC3"
		},
		{
			"bufferView":29,
			"componentType":5126,
			"count":10845,
			"type":"VEC3"
		},
		{
			"bufferView":30,
			"componentType":5126,
			"count":10845,
			"type":"VEC2"
		},
		{
			"bufferView":31,
			"componentType":5123,
			"count":11502,
			"type":"SCALAR"
		},
		{
			"bufferView":32,
			"componentType":5126,
			"count":1612,
			"max":[
				1667,
				1912,
				3538
			],
			"min":[
				109.57893371582031,
				806,
				3168
			],
			"type":"VEC3"
		},
		{
			"bufferView":33,
			"componentType":5126,
			"count":1612,
			"type":"VEC3"
		},
		{
			"bufferView":34,
			"componentType":5126,
			"count":1612,
			"type":"VEC2"
		},
		{
			"bufferView":35,
			"componentType":5123,
			"count":3993,
			"type":"SCALAR"
		},
		{
			"bufferView":36,
			"componentType":5126,
			"count":717,
			"max":[
				1685,
				2211,
				3550
			],
			"min":[
				0,
				0,
				3150
			],
			"type":"VEC3"
		},
		{
			"bufferView":37,
			"componentType":5126,
			"count":717,
			"type":"VEC3"
		},
		{
			"bufferView":38,
			"componentType":5126,
			"count":717,
			"type":"VEC2"
		},
		{
			"bufferView":39,
			"componentType":5123,
			"count":1320,
			"type":"SCALAR"
		},
		{
			"bufferView":40,
			"componentType":5126,
			"count":978,
			"max":[
				1667,
				1909.7672119140625,
				3550.5
			],
			"min":[
				18,
				769.5,
				3168
			],
			"type":"VEC3"
		},
		{
			"bufferView":41,
			"componentType":5126,
			"count":978,
			"type":"VEC3"
		},
		{
			"bufferView":42,
			"componentType":5126,
			"count":978,
			"type":"VEC2"
		},
		{
			"bufferView":43,
			"componentType":5123,
			"count":1884,
			"type":"SCALAR"
		},
		{
			"bufferView":44,
			"componentType":5126,
			"count":662,
			"max":[
				1657,
				778,
				3550
			],
			"min":[
				18,
				213,
				3532
			],
			"type":"VEC3"
		},
		{
			"bufferView":45,
			"componentType":5126,
			"count":662,
			"type":"VEC3"
		},
		{
			"bufferView":46,
			"componentType":5126,
			"count":662,
			"type":"VEC2"
		},
		{
			"bufferView":47,
			"componentType":5123,
			"count":1032,
			"type":"SCALAR"
		}
	],
	"bufferViews":[
		{
			"buffer":0,
			"byteLength":1848,
			"byteOffset":0,
			"target":34962
		},
		{
			"buffer":0,
			"byteLength":1848,
			"byteOffset":1848,
			"target":34962
		},
		{
			"buffer":0,
			"byteLength":1232,
			"byteOffset":3696,
			"target":34962
		},
		{
			"buffer":0,
			"byteLength":1374,
			"byteOffset":4928,
			"target":34963
		},
		{
			"buffer":0,
			"byteLength":1716,
			"byteOffset":6304,
			"target":34962
		},
		{
			"buffer":0,
			"byteLength":1716,
			"byteOffset":8020,
			"target":34962
		},
		{
			"buffer":0,
			"byteLength":1144,
			"byteOffset":9736,
			"target":34962
		},
		{
			"buffer":0,
			"byteLength":438,
			"byteOffset":10880,
			"target":34963
		},
		{
			"buffer":0,
			"byteLength":3216,
			"byteOffset":11320,
			"target":34962
		},
		{
			"buffer":0,
			"byteLength":3216,
			"byteOffset":14536,
			"target":34962
		},
		{
			"buffer":0,
			"byteLength":2144,
			"byteOffset":17752,
			"target":34962
		},
		{
			"buffer":0,
			"byteLength":1164,
			"byteOffset":19896,
			"target":34963
		},
		{
			"buffer":0,
			"byteLength":1344,
			"byteOffset":21060,
			"target":34962
		},
		{
			"buffer":0,
			"byteLength":1344,
			"byteOffset":22404,
			"target":34962
		},
		{
			"buffer":0,
			"byteLength":896,
			"byteOffset":23748,
			"target":34962
		},
		{
			"buffer":0,
			"byteLength":324,
			"byteOffset":24644,
			"target":34963
		},
		{
			"buffer":0,
			"byteLength":958020,
			"byteOffset":24968,
			"target":34962
		},
		{
			"buffer":0,
			"byteLength":958020,
			"byteOffset":982988,
			"target":34962
		},
		{
			"buffer":0,
			"byteLength":638680,
			"byteOffset":1941008,
			"target":34962
		},
		{
			"buffer":0,
			"byteLength":347136,
			"byteOffset":2579688,
			"target":34963
		},
		{
			"buffer":0,
			"byteLength":768,
			"byteOffset":2926824,
			"target":34962
		},
		{
			"buffer":0,
			"byteLength":768,
			"byteOffset":2927592,
			"target":34962
		},
		{
			"buffer":0,
			"byteLength":512,
			"byteOffset":2928360,
			"target":34962
		},
		{
			"buffer":0,
			"byteLength":288,
			"byteOffset":2928872,
			"target":34963
		},
		{
			"buffer":0,
			"byteLength":2208,
			"byteOffset":2929160,
			"target":34962
		},
		{
			"buffer":0,
			"byteLength":2208,
			"byteOffset":2931368,
			"target":34962
		},
		{
			"buffer":0,
			"byteLength":1472,
			"byteOffset":2933576,
			"target":34962
		},
		{
			"buffer":0,
			"byteLength":828,
			"byteOffset":2935048,
			"target":34963
		},
		{
			"buffer":0,
			"byteLength":130140,
			"byteOffset":2935876,
			"target":34962
		},
		{
			"buffer":0,
			"byteLength":130140,
			"byteOffset":3066016,
			"target":34962
		},
		{
			"buffer":0,
			"byteLength":86760,
			"byteOffset":3196156,
			"target":34962
		},
		{
			"buffer":0,
			"byteLength":23004,
			"byteOffset":3282916,
			"target":34963
		},
		{
			"buffer":0,
			"byteLength":19344,
			"byteOffset":3305920,
			"target":34962
		},
		{
			"buffer":0,
			"byteLength":19344,
			"byteOffset":3325264,
			"target":34962
		},
		{
			"buffer":0,
			"byteLength":12896,
			"byteOffset":3344608,
			"target":34962
		},
		{
			"buffer":0,
			"byteLength":7986,
			"byteOffset":3357504,
			"target":34963
		},
		{
			"buffer":0,
			"byteLength":8604,
			"byteOffset":3365492,
			"target":34962
		},
		{
			"buffer":0,
			"byteLength":8604,
			"byteOffset":3374096,
			"target":34962
		},
		{
			"buffer":0,
			"byteLength":5736,
			"byteOffset":3382700,
			"target":34962
		},
		{
			"buffer":0,
			"byteLength":2640,
			"byteOffset":3388436,
			"target":34963
		},
		{
			"buffer":0,
			"byteLength":11736,
			"byteOffset":3391076,
			"target":34962
		},
		{
			"buffer":0,
			"byteLength":11736,
			"byteOffset":3402812,
			"target":34962
		},
		{
			"buffer":0,
			"byteLength":7824,
			"byteOffset":3414548,
			"target":34962
		},
		{
			"buffer":0,
			"byteLength":3768,
			"byteOffset":3422372,
			"target":34963
		},
		{
			"buffer":0,
			"byteLength":7944,
			"byteOffset":3426140,
			"target":34962
		},
		{
			"buffer":0,
			"byteLength":7944,
			"byteOffset":3434084,
			"target":34962
		},
		{
			"buffer":0,
			"byteLength":5296,
			"byteOffset":3442028,
			"target":34962
		},
		{
			"buffer":0,
			"byteLength":2064,
			"byteOffset":3447324,
			"target":34963
		}
	],
	"samplers":[
		{
			"magFilter":9729,
			"minFilter":9987
		}
	],
	"buffers":[
		{
			"byteLength":3449388,
			"uri":"bureaum_bedm_kastm_kast.bin"
		}
	]
}
