{
	"asset":{
		"generator":"Khronos glTF Blender I/O v4.1.63",
		"version":"2.0"
	},
	"scene":0,
	"scenes":[
		{
			"name":"Scene",
			"nodes":[
				0
			]
		}
	],
	"nodes":[
		{
			"mesh":0,
			"name":"bureau"
		}
	],
	"materials":[
		{
			"doubleSided":true,
			"name":"Material.001",
			"pbrMetallicRoughness":{
				"baseColorFactor":[
					0,
					0,
					0,
					1
				],
				"metallicFactor":0,
				"roughnessFactor":0.5
			}
		},
		{
			"doubleSided":true,
			"name":"Color.002",
			"pbrMetallicRoughness":{
				"baseColorFactor":[
					0.09305834025144577,
					0.09305903315544128,
					0.0930589959025383,
					1
				],
				"metallicFactor":0,
				"roughnessFactor":0.5
			}
		},
		{
			"doubleSided":true,
			"name":"Wood.003",
			"pbrMetallicRoughness":{
				"baseColorTexture":{
					"index":0
				},
				"metallicFactor":0,
				"roughnessFactor":0.5
			}
		},
		{
			"doubleSided":true,
			"name":"Wood",
			"pbrMetallicRoughness":{
				"baseColorTexture":{
					"index":1
				},
				"metallicFactor":0,
				"roughnessFactor":0.5
			}
		}
	],
	"meshes":[
		{
			"name":"tv wand.002",
			"primitives":[
				{
					"attributes":{
						"POSITION":0,
						"NORMAL":1,
						"TEXCOORD_0":2
					},
					"indices":3,
					"material":0
				},
				{
					"attributes":{
						"POSITION":4,
						"NORMAL":5,
						"TEXCOORD_0":6
					},
					"indices":7,
					"material":1
				},
				{
					"attributes":{
						"POSITION":8,
						"NORMAL":9,
						"TEXCOORD_0":10
					},
					"indices":11,
					"material":2
				},
				{
					"attributes":{
						"POSITION":12,
						"NORMAL":13,
						"TEXCOORD_0":14
					},
					"indices":15,
					"material":3
				}
			]
		}
	],
	"textures":[
		{
			"sampler":0,
			"source":0
		},
		{
			"sampler":0,
			"source":1
		}
	],
	"images":[
		{
			"mimeType":"image/jpeg",
			"name":"birch",
			"uri":"birch.jpg"
		},
		{
			"mimeType":"image/jpeg",
			"name":"oak",
			"uri":"oak.jpg"
		}
	],
	"accessors":[
		{
			"bufferView":0,
			"componentType":5126,
			"count":1463,
			"max":[
				1667,
				1912,
				388
			],
			"min":[
				109.57893371582031,
				806,
				18
			],
			"type":"VEC3"
		},
		{
			"bufferView":1,
			"componentType":5126,
			"count":1463,
			"type":"VEC3"
		},
		{
			"bufferView":2,
			"componentType":5126,
			"count":1463,
			"type":"VEC2"
		},
		{
			"bufferView":3,
			"componentType":5123,
			"count":3993,
			"type":"SCALAR"
		},
		{
			"bufferView":4,
			"componentType":5126,
			"count":587,
			"max":[
				1685,
				2211,
				400
			],
			"min":[
				0,
				0,
				0
			],
			"type":"VEC3"
		},
		{
			"bufferView":5,
			"componentType":5126,
			"count":587,
			"type":"VEC3"
		},
		{
			"bufferView":6,
			"componentType":5126,
			"count":587,
			"type":"VEC2"
		},
		{
			"bufferView":7,
			"componentType":5123,
			"count":1320,
			"type":"SCALAR"
		},
		{
			"bufferView":8,
			"componentType":5126,
			"count":855,
			"max":[
				1667,
				1909.7672119140625,
				400.5
			],
			"min":[
				18,
				769.5,
				18
			],
			"type":"VEC3"
		},
		{
			"bufferView":9,
			"componentType":5126,
			"count":855,
			"type":"VEC3"
		},
		{
			"bufferView":10,
			"componentType":5126,
			"count":855,
			"type":"VEC2"
		},
		{
			"bufferView":11,
			"componentType":5123,
			"count":1884,
			"type":"SCALAR"
		},
		{
			"bufferView":12,
			"componentType":5126,
			"count":544,
			"max":[
				1657,
				778,
				400
			],
			"min":[
				18,
				213,
				382
			],
			"type":"VEC3"
		},
		{
			"bufferView":13,
			"componentType":5126,
			"count":544,
			"type":"VEC3"
		},
		{
			"bufferView":14,
			"componentType":5126,
			"count":544,
			"type":"VEC2"
		},
		{
			"bufferView":15,
			"componentType":5123,
			"count":1032,
			"type":"SCALAR"
		}
	],
	"bufferViews":[
		{
			"buffer":0,
			"byteLength":17556,
			"byteOffset":0,
			"target":34962
		},
		{
			"buffer":0,
			"byteLength":17556,
			"byteOffset":17556,
			"target":34962
		},
		{
			"buffer":0,
			"byteLength":11704,
			"byteOffset":35112,
			"target":34962
		},
		{
			"buffer":0,
			"byteLength":7986,
			"byteOffset":46816,
			"target":34963
		},
		{
			"buffer":0,
			"byteLength":7044,
			"byteOffset":54804,
			"target":34962
		},
		{
			"buffer":0,
			"byteLength":7044,
			"byteOffset":61848,
			"target":34962
		},
		{
			"buffer":0,
			"byteLength":4696,
			"byteOffset":68892,
			"target":34962
		},
		{
			"buffer":0,
			"byteLength":2640,
			"byteOffset":73588,
			"target":34963
		},
		{
			"buffer":0,
			"byteLength":10260,
			"byteOffset":76228,
			"target":34962
		},
		{
			"buffer":0,
			"byteLength":10260,
			"byteOffset":86488,
			"target":34962
		},
		{
			"buffer":0,
			"byteLength":6840,
			"byteOffset":96748,
			"target":34962
		},
		{
			"buffer":0,
			"byteLength":3768,
			"byteOffset":103588,
			"target":34963
		},
		{
			"buffer":0,
			"byteLength":6528,
			"byteOffset":107356,
			"target":34962
		},
		{
			"buffer":0,
			"byteLength":6528,
			"byteOffset":113884,
			"target":34962
		},
		{
			"buffer":0,
			"byteLength":4352,
			"byteOffset":120412,
			"target":34962
		},
		{
			"buffer":0,
			"byteLength":2064,
			"byteOffset":124764,
			"target":34963
		}
	],
	"samplers":[
		{
			"magFilter":9729,
			"minFilter":9987
		}
	],
	"buffers":[
		{
			"byteLength":126828,
			"uri":"bureau_closed.bin"
		}
	]
}
