{
	"asset":{
		"generator":"Khronos glTF Blender I/O v4.1.63",
		"version":"2.0"
	},
	"scene":0,
	"scenes":[
		{
			"name":"Scene",
			"nodes":[
				0
			]
		}
	],
	"nodes":[
		{
			"mesh":0,
			"name":"kastm_bedm_kastm_kast"
		}
	],
	"materials":[
		{
			"doubleSided":true,
			"name":"Color.002",
			"pbrMetallicRoughness":{
				"baseColorFactor":[
					0.09305834025144577,
					0.09305903315544128,
					0.0930589959025383,
					1
				],
				"metallicFactor":0,
				"roughnessFactor":0.5
			}
		},
		{
			"doubleSided":true,
			"name":"Wood.002",
			"pbrMetallicRoughness":{
				"baseColorTexture":{
					"index":0
				},
				"metallicFactor":0,
				"roughnessFactor":0.5
			}
		},
		{
			"doubleSided":true,
			"name":"Sofa.001",
			"pbrMetallicRoughness":{
				"baseColorTexture":{
					"index":1
				},
				"metallicFactor":0,
				"roughnessFactor":0.5
			}
		},
		{
			"doubleSided":true,
			"name":"Wood.004",
			"pbrMetallicRoughness":{
				"baseColorTexture":{
					"index":2
				},
				"metallicFactor":0,
				"roughnessFactor":0.5
			}
		},
		{
			"doubleSided":true,
			"name":"Color.004",
			"pbrMetallicRoughness":{
				"metallicFactor":0,
				"roughnessFactor":0.5
			}
		},
		{
			"doubleSided":true,
			"name":"Material.002",
			"pbrMetallicRoughness":{
				"baseColorTexture":{
					"index":3
				},
				"metallicFactor":0,
				"roughnessFactor":0.5
			}
		},
		{
			"doubleSided":true,
			"name":"Color.009",
			"pbrMetallicRoughness":{
				"baseColorFactor":[
					0.09305834025144577,
					0.09305903315544128,
					0.0930589959025383,
					1
				],
				"metallicFactor":0,
				"roughnessFactor":0.5
			}
		},
		{
			"doubleSided":true,
			"name":"Wood.005",
			"pbrMetallicRoughness":{
				"baseColorTexture":{
					"index":4
				},
				"metallicFactor":0,
				"roughnessFactor":0.5
			}
		},
		{
			"doubleSided":true,
			"name":"Color.005",
			"pbrMetallicRoughness":{
				"baseColorFactor":[
					0.09305834025144577,
					0.09305903315544128,
					0.0930589959025383,
					1
				],
				"metallicFactor":0,
				"roughnessFactor":0.5
			}
		},
		{
			"doubleSided":true,
			"name":"Wood.006",
			"pbrMetallicRoughness":{
				"baseColorTexture":{
					"index":5
				},
				"metallicFactor":0,
				"roughnessFactor":0.5
			}
		}
	],
	"meshes":[
		{
			"name":"inloopkast 2.001",
			"primitives":[
				{
					"attributes":{
						"POSITION":0,
						"NORMAL":1,
						"TEXCOORD_0":2
					},
					"indices":3,
					"material":0
				},
				{
					"attributes":{
						"POSITION":4,
						"NORMAL":5,
						"TEXCOORD_0":6
					},
					"indices":7,
					"material":1
				},
				{
					"attributes":{
						"POSITION":8,
						"NORMAL":9,
						"TEXCOORD_0":10
					},
					"indices":11,
					"material":2
				},
				{
					"attributes":{
						"POSITION":12,
						"NORMAL":13,
						"TEXCOORD_0":14
					},
					"indices":15,
					"material":3
				},
				{
					"attributes":{
						"POSITION":16,
						"NORMAL":17,
						"TEXCOORD_0":18
					},
					"indices":19,
					"material":4
				},
				{
					"attributes":{
						"POSITION":20,
						"NORMAL":21,
						"TEXCOORD_0":22
					},
					"indices":23,
					"material":5
				},
				{
					"attributes":{
						"POSITION":24,
						"NORMAL":25,
						"TEXCOORD_0":26
					},
					"indices":27,
					"material":6
				},
				{
					"attributes":{
						"POSITION":28,
						"NORMAL":29,
						"TEXCOORD_0":30
					},
					"indices":31,
					"material":7
				},
				{
					"attributes":{
						"POSITION":32,
						"NORMAL":33,
						"TEXCOORD_0":34
					},
					"indices":3,
					"material":8
				},
				{
					"attributes":{
						"POSITION":35,
						"NORMAL":36,
						"TEXCOORD_0":37
					},
					"indices":7,
					"material":9
				}
			]
		}
	],
	"textures":[
		{
			"sampler":0,
			"source":0
		},
		{
			"sampler":0,
			"source":1
		},
		{
			"sampler":0,
			"source":0
		},
		{
			"sampler":0,
			"source":2
		},
		{
			"sampler":0,
			"source":0
		},
		{
			"sampler":0,
			"source":0
		}
	],
	"images":[
		{
			"mimeType":"image/jpeg",
			"name":"oak",
			"uri":"oak.jpg"
		},
		{
			"mimeType":"image/jpeg",
			"name":"blue_sofa",
			"uri":"blue_sofa.jpg"
		},
		{
			"mimeType":"image/jpeg",
			"name":"mattress",
			"uri":"mattress.jpg"
		}
	],
	"accessors":[
		{
			"bufferView":0,
			"componentType":5126,
			"count":268,
			"max":[
				1685,
				2211,
				400
			],
			"min":[
				0,
				0,
				0
			],
			"type":"VEC3"
		},
		{
			"bufferView":1,
			"componentType":5126,
			"count":268,
			"type":"VEC3"
		},
		{
			"bufferView":2,
			"componentType":5126,
			"count":268,
			"type":"VEC2"
		},
		{
			"bufferView":3,
			"componentType":5123,
			"count":582,
			"type":"SCALAR"
		},
		{
			"bufferView":4,
			"componentType":5126,
			"count":112,
			"max":[
				1667,
				1772.4000244140625,
				382
			],
			"min":[
				18,
				438.6000061035156,
				18
			],
			"type":"VEC3"
		},
		{
			"bufferView":5,
			"componentType":5126,
			"count":112,
			"type":"VEC3"
		},
		{
			"bufferView":6,
			"componentType":5126,
			"count":112,
			"type":"VEC2"
		},
		{
			"bufferView":7,
			"componentType":5123,
			"count":162,
			"type":"SCALAR"
		},
		{
			"bufferView":8,
			"componentType":5126,
			"count":79835,
			"max":[
				1688.22509765625,
				2193,
				3132
			],
			"min":[
				-1.77490234375,
				0,
				966.5
			],
			"type":"VEC3"
		},
		{
			"bufferView":9,
			"componentType":5126,
			"count":79835,
			"type":"VEC3"
		},
		{
			"bufferView":10,
			"componentType":5126,
			"count":79835,
			"type":"VEC2"
		},
		{
			"bufferView":11,
			"componentType":5125,
			"count":86784,
			"type":"SCALAR"
		},
		{
			"bufferView":12,
			"componentType":5126,
			"count":64,
			"max":[
				1667,
				289.71044921875,
				3116.5
			],
			"min":[
				22,
				-0.2895561158657074,
				948.5
			],
			"type":"VEC3"
		},
		{
			"bufferView":13,
			"componentType":5126,
			"count":64,
			"type":"VEC3"
		},
		{
			"bufferView":14,
			"componentType":5126,
			"count":64,
			"type":"VEC2"
		},
		{
			"bufferView":15,
			"componentType":5123,
			"count":144,
			"type":"SCALAR"
		},
		{
			"bufferView":16,
			"componentType":5126,
			"count":184,
			"max":[
				1685,
				2211,
				3150
			],
			"min":[
				0,
				0,
				2750
			],
			"type":"VEC3"
		},
		{
			"bufferView":17,
			"componentType":5126,
			"count":184,
			"type":"VEC3"
		},
		{
			"bufferView":18,
			"componentType":5126,
			"count":184,
			"type":"VEC2"
		},
		{
			"bufferView":19,
			"componentType":5123,
			"count":414,
			"type":"SCALAR"
		},
		{
			"bufferView":20,
			"componentType":5126,
			"count":10845,
			"max":[
				1629.22509765625,
				490,
				3072.172119140625
			],
			"min":[
				38.22509765625,
				290,
				982.172119140625
			],
			"type":"VEC3"
		},
		{
			"bufferView":21,
			"componentType":5126,
			"count":10845,
			"type":"VEC3"
		},
		{
			"bufferView":22,
			"componentType":5126,
			"count":10845,
			"type":"VEC2"
		},
		{
			"bufferView":23,
			"componentType":5123,
			"count":11502,
			"type":"SCALAR"
		},
		{
			"bufferView":24,
			"componentType":5126,
			"count":154,
			"max":[
				1685,
				2211,
				800
			],
			"min":[
				0,
				0,
				400
			],
			"type":"VEC3"
		},
		{
			"bufferView":25,
			"componentType":5126,
			"count":154,
			"type":"VEC3"
		},
		{
			"bufferView":26,
			"componentType":5126,
			"count":154,
			"type":"VEC2"
		},
		{
			"bufferView":27,
			"componentType":5123,
			"count":687,
			"type":"SCALAR"
		},
		{
			"bufferView":28,
			"componentType":5126,
			"count":143,
			"max":[
				1685,
				2018,
				800
			],
			"min":[
				18,
				282,
				409
			],
			"type":"VEC3"
		},
		{
			"bufferView":29,
			"componentType":5126,
			"count":143,
			"type":"VEC3"
		},
		{
			"bufferView":30,
			"componentType":5126,
			"count":143,
			"type":"VEC2"
		},
		{
			"bufferView":31,
			"componentType":5123,
			"count":219,
			"type":"SCALAR"
		},
		{
			"bufferView":32,
			"componentType":5126,
			"count":268,
			"max":[
				1685,
				2211,
				3550
			],
			"min":[
				0,
				0,
				3150
			],
			"type":"VEC3"
		},
		{
			"bufferView":33,
			"componentType":5126,
			"count":268,
			"type":"VEC3"
		},
		{
			"bufferView":34,
			"componentType":5126,
			"count":268,
			"type":"VEC2"
		},
		{
			"bufferView":35,
			"componentType":5126,
			"count":112,
			"max":[
				1667,
				1772.4000244140625,
				3532
			],
			"min":[
				18,
				438.6000061035156,
				3168
			],
			"type":"VEC3"
		},
		{
			"bufferView":36,
			"componentType":5126,
			"count":112,
			"type":"VEC3"
		},
		{
			"bufferView":37,
			"componentType":5126,
			"count":112,
			"type":"VEC2"
		}
	],
	"bufferViews":[
		{
			"buffer":0,
			"byteLength":3216,
			"byteOffset":0,
			"target":34962
		},
		{
			"buffer":0,
			"byteLength":3216,
			"byteOffset":3216,
			"target":34962
		},
		{
			"buffer":0,
			"byteLength":2144,
			"byteOffset":6432,
			"target":34962
		},
		{
			"buffer":0,
			"byteLength":1164,
			"byteOffset":8576,
			"target":34963
		},
		{
			"buffer":0,
			"byteLength":1344,
			"byteOffset":9740,
			"target":34962
		},
		{
			"buffer":0,
			"byteLength":1344,
			"byteOffset":11084,
			"target":34962
		},
		{
			"buffer":0,
			"byteLength":896,
			"byteOffset":12428,
			"target":34962
		},
		{
			"buffer":0,
			"byteLength":324,
			"byteOffset":13324,
			"target":34963
		},
		{
			"buffer":0,
			"byteLength":958020,
			"byteOffset":13648,
			"target":34962
		},
		{
			"buffer":0,
			"byteLength":958020,
			"byteOffset":971668,
			"target":34962
		},
		{
			"buffer":0,
			"byteLength":638680,
			"byteOffset":1929688,
			"target":34962
		},
		{
			"buffer":0,
			"byteLength":347136,
			"byteOffset":2568368,
			"target":34963
		},
		{
			"buffer":0,
			"byteLength":768,
			"byteOffset":2915504,
			"target":34962
		},
		{
			"buffer":0,
			"byteLength":768,
			"byteOffset":2916272,
			"target":34962
		},
		{
			"buffer":0,
			"byteLength":512,
			"byteOffset":2917040,
			"target":34962
		},
		{
			"buffer":0,
			"byteLength":288,
			"byteOffset":2917552,
			"target":34963
		},
		{
			"buffer":0,
			"byteLength":2208,
			"byteOffset":2917840,
			"target":34962
		},
		{
			"buffer":0,
			"byteLength":2208,
			"byteOffset":2920048,
			"target":34962
		},
		{
			"buffer":0,
			"byteLength":1472,
			"byteOffset":2922256,
			"target":34962
		},
		{
			"buffer":0,
			"byteLength":828,
			"byteOffset":2923728,
			"target":34963
		},
		{
			"buffer":0,
			"byteLength":130140,
			"byteOffset":2924556,
			"target":34962
		},
		{
			"buffer":0,
			"byteLength":130140,
			"byteOffset":3054696,
			"target":34962
		},
		{
			"buffer":0,
			"byteLength":86760,
			"byteOffset":3184836,
			"target":34962
		},
		{
			"buffer":0,
			"byteLength":23004,
			"byteOffset":3271596,
			"target":34963
		},
		{
			"buffer":0,
			"byteLength":1848,
			"byteOffset":3294600,
			"target":34962
		},
		{
			"buffer":0,
			"byteLength":1848,
			"byteOffset":3296448,
			"target":34962
		},
		{
			"buffer":0,
			"byteLength":1232,
			"byteOffset":3298296,
			"target":34962
		},
		{
			"buffer":0,
			"byteLength":1374,
			"byteOffset":3299528,
			"target":34963
		},
		{
			"buffer":0,
			"byteLength":1716,
			"byteOffset":3300904,
			"target":34962
		},
		{
			"buffer":0,
			"byteLength":1716,
			"byteOffset":3302620,
			"target":34962
		},
		{
			"buffer":0,
			"byteLength":1144,
			"byteOffset":3304336,
			"target":34962
		},
		{
			"buffer":0,
			"byteLength":438,
			"byteOffset":3305480,
			"target":34963
		},
		{
			"buffer":0,
			"byteLength":3216,
			"byteOffset":3305920,
			"target":34962
		},
		{
			"buffer":0,
			"byteLength":3216,
			"byteOffset":3309136,
			"target":34962
		},
		{
			"buffer":0,
			"byteLength":2144,
			"byteOffset":3312352,
			"target":34962
		},
		{
			"buffer":0,
			"byteLength":1344,
			"byteOffset":3314496,
			"target":34962
		},
		{
			"buffer":0,
			"byteLength":1344,
			"byteOffset":3315840,
			"target":34962
		},
		{
			"buffer":0,
			"byteLength":896,
			"byteOffset":3317184,
			"target":34962
		}
	],
	"samplers":[
		{
			"magFilter":9729,
			"minFilter":9987
		}
	],
	"buffers":[
		{
			"byteLength":3318080,
			"uri":"kastm_bedm_kastm_kast.bin"
		}
	]
}
