{
	"asset":{
		"generator":"Khronos glTF Blender I/O v4.1.63",
		"version":"2.0"
	},
	"scene":0,
	"scenes":[
		{
			"name":"Scene",
			"nodes":[
				0
			]
		}
	],
	"nodes":[
		{
			"mesh":0,
			"name":"kast"
		}
	],
	"materials":[
		{
			"doubleSided":true,
			"name":"Color.002",
			"pbrMetallicRoughness":{
				"baseColorFactor":[
					0.09305834025144577,
					0.09305903315544128,
					0.0930589959025383,
					1
				],
				"metallicFactor":0,
				"roughnessFactor":0.5
			}
		},
		{
			"doubleSided":true,
			"name":"Wood.002",
			"pbrMetallicRoughness":{
				"baseColorTexture":{
					"index":0
				},
				"metallicFactor":0,
				"roughnessFactor":0.5
			}
		}
	],
	"meshes":[
		{
			"name":"inloopkast 2.001",
			"primitives":[
				{
					"attributes":{
						"POSITION":0,
						"NORMAL":1,
						"TEXCOORD_0":2
					},
					"indices":3,
					"material":0
				},
				{
					"attributes":{
						"POSITION":4,
						"NORMAL":5,
						"TEXCOORD_0":6
					},
					"indices":7,
					"material":1
				}
			]
		}
	],
	"textures":[
		{
			"sampler":0,
			"source":0
		}
	],
	"images":[
		{
			"mimeType":"image/jpeg",
			"name":"oak",
			"uri":"oak.jpg"
		}
	],
	"accessors":[
		{
			"bufferView":0,
			"componentType":5126,
			"count":268,
			"max":[
				1685,
				2211,
				400
			],
			"min":[
				0,
				0,
				0
			],
			"type":"VEC3"
		},
		{
			"bufferView":1,
			"componentType":5126,
			"count":268,
			"type":"VEC3"
		},
		{
			"bufferView":2,
			"componentType":5126,
			"count":268,
			"type":"VEC2"
		},
		{
			"bufferView":3,
			"componentType":5123,
			"count":582,
			"type":"SCALAR"
		},
		{
			"bufferView":4,
			"componentType":5126,
			"count":112,
			"max":[
				1667,
				1772.4000244140625,
				382
			],
			"min":[
				18,
				438.6000061035156,
				18
			],
			"type":"VEC3"
		},
		{
			"bufferView":5,
			"componentType":5126,
			"count":112,
			"type":"VEC3"
		},
		{
			"bufferView":6,
			"componentType":5126,
			"count":112,
			"type":"VEC2"
		},
		{
			"bufferView":7,
			"componentType":5123,
			"count":162,
			"type":"SCALAR"
		}
	],
	"bufferViews":[
		{
			"buffer":0,
			"byteLength":3216,
			"byteOffset":0,
			"target":34962
		},
		{
			"buffer":0,
			"byteLength":3216,
			"byteOffset":3216,
			"target":34962
		},
		{
			"buffer":0,
			"byteLength":2144,
			"byteOffset":6432,
			"target":34962
		},
		{
			"buffer":0,
			"byteLength":1164,
			"byteOffset":8576,
			"target":34963
		},
		{
			"buffer":0,
			"byteLength":1344,
			"byteOffset":9740,
			"target":34962
		},
		{
			"buffer":0,
			"byteLength":1344,
			"byteOffset":11084,
			"target":34962
		},
		{
			"buffer":0,
			"byteLength":896,
			"byteOffset":12428,
			"target":34962
		},
		{
			"buffer":0,
			"byteLength":324,
			"byteOffset":13324,
			"target":34963
		}
	],
	"samplers":[
		{
			"magFilter":9729,
			"minFilter":9987
		}
	],
	"buffers":[
		{
			"byteLength":13648,
			"uri":"kast.bin"
		}
	]
}
