{
	"asset":{
		"generator":"Khronos glTF Blender I/O v4.1.63",
		"version":"2.0"
	},
	"scene":0,
	"scenes":[
		{
			"name":"Scene",
			"nodes":[
				0
			]
		}
	],
	"nodes":[
		{
			"mesh":0,
			"name":"kast_bedm"
		}
	],
	"materials":[
		{
			"doubleSided":true,
			"name":"Color.002",
			"pbrMetallicRoughness":{
				"baseColorFactor":[
					0.09305834025144577,
					0.09305903315544128,
					0.0930589959025383,
					1
				],
				"metallicFactor":0,
				"roughnessFactor":0.5
			}
		},
		{
			"doubleSided":true,
			"name":"Wood.002",
			"pbrMetallicRoughness":{
				"baseColorTexture":{
					"index":0
				},
				"metallicFactor":0,
				"roughnessFactor":0.5
			}
		},
		{
			"doubleSided":true,
			"name":"Sofa.001",
			"pbrMetallicRoughness":{
				"baseColorTexture":{
					"index":1
				},
				"metallicFactor":0,
				"roughnessFactor":0.5
			}
		},
		{
			"doubleSided":true,
			"name":"Wood.004",
			"pbrMetallicRoughness":{
				"baseColorTexture":{
					"index":2
				},
				"metallicFactor":0,
				"roughnessFactor":0.5
			}
		},
		{
			"doubleSided":true,
			"name":"Color.004",
			"pbrMetallicRoughness":{
				"metallicFactor":0,
				"roughnessFactor":0.5
			}
		},
		{
			"doubleSided":true,
			"name":"Material.002",
			"pbrMetallicRoughness":{
				"baseColorTexture":{
					"index":3
				},
				"metallicFactor":0,
				"roughnessFactor":0.5
			}
		}
	],
	"meshes":[
		{
			"name":"inloopkast 2.001",
			"primitives":[
				{
					"attributes":{
						"POSITION":0,
						"NORMAL":1,
						"TEXCOORD_0":2
					},
					"indices":3,
					"material":0
				},
				{
					"attributes":{
						"POSITION":4,
						"NORMAL":5,
						"TEXCOORD_0":6
					},
					"indices":7,
					"material":1
				},
				{
					"attributes":{
						"POSITION":8,
						"NORMAL":9,
						"TEXCOORD_0":10
					},
					"indices":11,
					"material":2
				},
				{
					"attributes":{
						"POSITION":12,
						"NORMAL":13,
						"TEXCOORD_0":14
					},
					"indices":15,
					"material":3
				},
				{
					"attributes":{
						"POSITION":16,
						"NORMAL":17,
						"TEXCOORD_0":18
					},
					"indices":19,
					"material":4
				},
				{
					"attributes":{
						"POSITION":20,
						"NORMAL":21,
						"TEXCOORD_0":22
					},
					"indices":23,
					"material":5
				}
			]
		}
	],
	"textures":[
		{
			"sampler":0,
			"source":0
		},
		{
			"sampler":0,
			"source":1
		},
		{
			"sampler":0,
			"source":0
		},
		{
			"sampler":0,
			"source":2
		}
	],
	"images":[
		{
			"mimeType":"image/jpeg",
			"name":"oak",
			"uri":"oak.jpg"
		},
		{
			"mimeType":"image/jpeg",
			"name":"blue_sofa",
			"uri":"blue_sofa.jpg"
		},
		{
			"mimeType":"image/jpeg",
			"name":"mattress",
			"uri":"mattress.jpg"
		}
	],
	"accessors":[
		{
			"bufferView":0,
			"componentType":5126,
			"count":268,
			"max":[
				1685,
				2211,
				400
			],
			"min":[
				0,
				0,
				0
			],
			"type":"VEC3"
		},
		{
			"bufferView":1,
			"componentType":5126,
			"count":268,
			"type":"VEC3"
		},
		{
			"bufferView":2,
			"componentType":5126,
			"count":268,
			"type":"VEC2"
		},
		{
			"bufferView":3,
			"componentType":5123,
			"count":582,
			"type":"SCALAR"
		},
		{
			"bufferView":4,
			"componentType":5126,
			"count":112,
			"max":[
				1667,
				1772.4000244140625,
				382
			],
			"min":[
				18,
				438.6000061035156,
				18
			],
			"type":"VEC3"
		},
		{
			"bufferView":5,
			"componentType":5126,
			"count":112,
			"type":"VEC3"
		},
		{
			"bufferView":6,
			"componentType":5126,
			"count":112,
			"type":"VEC2"
		},
		{
			"bufferView":7,
			"componentType":5123,
			"count":162,
			"type":"SCALAR"
		},
		{
			"bufferView":8,
			"componentType":5126,
			"count":79297,
			"max":[
				1688.22509765625,
				2193,
				2931.5
			],
			"min":[
				-1.77490234375,
				0,
				766
			],
			"type":"VEC3"
		},
		{
			"bufferView":9,
			"componentType":5126,
			"count":79297,
			"type":"VEC3"
		},
		{
			"bufferView":10,
			"componentType":5126,
			"count":79297,
			"type":"VEC2"
		},
		{
			"bufferView":11,
			"componentType":5125,
			"count":86784,
			"type":"SCALAR"
		},
		{
			"bufferView":12,
			"componentType":5126,
			"count":64,
			"max":[
				1667,
				289.71044921875,
				2949.5
			],
			"min":[
				22,
				-0.2895561158657074,
				781.5
			],
			"type":"VEC3"
		},
		{
			"bufferView":13,
			"componentType":5126,
			"count":64,
			"type":"VEC3"
		},
		{
			"bufferView":14,
			"componentType":5126,
			"count":64,
			"type":"VEC2"
		},
		{
			"bufferView":15,
			"componentType":5123,
			"count":144,
			"type":"SCALAR"
		},
		{
			"bufferView":16,
			"componentType":5126,
			"count":184,
			"max":[
				1685,
				2211,
				1148
			],
			"min":[
				0,
				0,
				748
			],
			"type":"VEC3"
		},
		{
			"bufferView":17,
			"componentType":5126,
			"count":184,
			"type":"VEC3"
		},
		{
			"bufferView":18,
			"componentType":5126,
			"count":184,
			"type":"VEC2"
		},
		{
			"bufferView":19,
			"componentType":5123,
			"count":414,
			"type":"SCALAR"
		},
		{
			"bufferView":20,
			"componentType":5126,
			"count":10821,
			"max":[
				1629.22509765625,
				490,
				2915.827880859375
			],
			"min":[
				38.22509765625,
				290,
				825.8279418945312
			],
			"type":"VEC3"
		},
		{
			"bufferView":21,
			"componentType":5126,
			"count":10821,
			"type":"VEC3"
		},
		{
			"bufferView":22,
			"componentType":5126,
			"count":10821,
			"type":"VEC2"
		},
		{
			"bufferView":23,
			"componentType":5123,
			"count":11502,
			"type":"SCALAR"
		}
	],
	"bufferViews":[
		{
			"buffer":0,
			"byteLength":3216,
			"byteOffset":0,
			"target":34962
		},
		{
			"buffer":0,
			"byteLength":3216,
			"byteOffset":3216,
			"target":34962
		},
		{
			"buffer":0,
			"byteLength":2144,
			"byteOffset":6432,
			"target":34962
		},
		{
			"buffer":0,
			"byteLength":1164,
			"byteOffset":8576,
			"target":34963
		},
		{
			"buffer":0,
			"byteLength":1344,
			"byteOffset":9740,
			"target":34962
		},
		{
			"buffer":0,
			"byteLength":1344,
			"byteOffset":11084,
			"target":34962
		},
		{
			"buffer":0,
			"byteLength":896,
			"byteOffset":12428,
			"target":34962
		},
		{
			"buffer":0,
			"byteLength":324,
			"byteOffset":13324,
			"target":34963
		},
		{
			"buffer":0,
			"byteLength":951564,
			"byteOffset":13648,
			"target":34962
		},
		{
			"buffer":0,
			"byteLength":951564,
			"byteOffset":965212,
			"target":34962
		},
		{
			"buffer":0,
			"byteLength":634376,
			"byteOffset":1916776,
			"target":34962
		},
		{
			"buffer":0,
			"byteLength":347136,
			"byteOffset":2551152,
			"target":34963
		},
		{
			"buffer":0,
			"byteLength":768,
			"byteOffset":2898288,
			"target":34962
		},
		{
			"buffer":0,
			"byteLength":768,
			"byteOffset":2899056,
			"target":34962
		},
		{
			"buffer":0,
			"byteLength":512,
			"byteOffset":2899824,
			"target":34962
		},
		{
			"buffer":0,
			"byteLength":288,
			"byteOffset":2900336,
			"target":34963
		},
		{
			"buffer":0,
			"byteLength":2208,
			"byteOffset":2900624,
			"target":34962
		},
		{
			"buffer":0,
			"byteLength":2208,
			"byteOffset":2902832,
			"target":34962
		},
		{
			"buffer":0,
			"byteLength":1472,
			"byteOffset":2905040,
			"target":34962
		},
		{
			"buffer":0,
			"byteLength":828,
			"byteOffset":2906512,
			"target":34963
		},
		{
			"buffer":0,
			"byteLength":129852,
			"byteOffset":2907340,
			"target":34962
		},
		{
			"buffer":0,
			"byteLength":129852,
			"byteOffset":3037192,
			"target":34962
		},
		{
			"buffer":0,
			"byteLength":86568,
			"byteOffset":3167044,
			"target":34962
		},
		{
			"buffer":0,
			"byteLength":23004,
			"byteOffset":3253612,
			"target":34963
		}
	],
	"samplers":[
		{
			"magFilter":9729,
			"minFilter":9987
		}
	],
	"buffers":[
		{
			"byteLength":3276616,
			"uri":"kast_bedm.bin"
		}
	]
}
