{
	"asset":{
		"generator":"Khronos glTF Blender I/O v4.1.63",
		"version":"2.0"
	},
	"scene":0,
	"scenes":[
		{
			"name":"Scene",
			"nodes":[
				0
			]
		}
	],
	"nodes":[
		{
			"mesh":0,
			"name":"opklapbed"
		}
	],
	"materials":[
		{
			"doubleSided":true,
			"name":"Sofa",
			"pbrMetallicRoughness":{
				"baseColorTexture":{
					"index":0
				},
				"metallicFactor":0,
				"roughnessFactor":0.5
			}
		},
		{
			"doubleSided":true,
			"name":"Wood.001",
			"pbrMetallicRoughness":{
				"baseColorTexture":{
					"index":1
				},
				"metallicFactor":0,
				"roughnessFactor":0.5
			}
		},
		{
			"doubleSided":true,
			"name":"Color.001",
			"pbrMetallicRoughness":{
				"metallicFactor":0,
				"roughnessFactor":0.5
			}
		},
		{
			"doubleSided":true,
			"name":"Material.028",
			"pbrMetallicRoughness":{
				"baseColorTexture":{
					"index":2
				},
				"metallicFactor":0,
				"roughnessFactor":0.5
			}
		}
	],
	"meshes":[
		{
			"name":"zetelbed wand module open.002",
			"primitives":[
				{
					"attributes":{
						"POSITION":0,
						"NORMAL":1,
						"TEXCOORD_0":2
					},
					"indices":3,
					"material":0
				},
				{
					"attributes":{
						"POSITION":4,
						"NORMAL":5,
						"TEXCOORD_0":6
					},
					"indices":7,
					"material":1
				},
				{
					"attributes":{
						"POSITION":8,
						"NORMAL":9,
						"TEXCOORD_0":10
					},
					"indices":11,
					"material":2
				},
				{
					"attributes":{
						"POSITION":12,
						"NORMAL":13,
						"TEXCOORD_0":14
					},
					"indices":15,
					"material":3
				}
			]
		}
	],
	"textures":[
		{
			"sampler":0,
			"source":0
		},
		{
			"sampler":0,
			"source":1
		},
		{
			"sampler":0,
			"source":2
		}
	],
	"images":[
		{
			"mimeType":"image/jpeg",
			"name":"blue_sofa",
			"uri":"blue_sofa.jpg"
		},
		{
			"mimeType":"image/jpeg",
			"name":"oak",
			"uri":"oak.jpg"
		},
		{
			"mimeType":"image/jpeg",
			"name":"mattress",
			"uri":"mattress.jpg"
		}
	],
	"accessors":[
		{
			"bufferView":0,
			"componentType":5126,
			"count":75965,
			"max":[
				1688.22509765625,
				2193,
				2183.5
			],
			"min":[
				-1.77490234375,
				0,
				18.000003814697266
			],
			"type":"VEC3"
		},
		{
			"bufferView":1,
			"componentType":5126,
			"count":75965,
			"type":"VEC3"
		},
		{
			"bufferView":2,
			"componentType":5126,
			"count":75965,
			"type":"VEC2"
		},
		{
			"bufferView":3,
			"componentType":5125,
			"count":86784,
			"type":"SCALAR"
		},
		{
			"bufferView":4,
			"componentType":5126,
			"count":64,
			"max":[
				1667,
				289.71044921875,
				2201.5
			],
			"min":[
				22,
				-0.2895561158657074,
				33.500003814697266
			],
			"type":"VEC3"
		},
		{
			"bufferView":5,
			"componentType":5126,
			"count":64,
			"type":"VEC3"
		},
		{
			"bufferView":6,
			"componentType":5126,
			"count":64,
			"type":"VEC2"
		},
		{
			"bufferView":7,
			"componentType":5123,
			"count":144,
			"type":"SCALAR"
		},
		{
			"bufferView":8,
			"componentType":5126,
			"count":184,
			"max":[
				1685,
				2211,
				400
			],
			"min":[
				0,
				0,
				0
			],
			"type":"VEC3"
		},
		{
			"bufferView":9,
			"componentType":5126,
			"count":184,
			"type":"VEC3"
		},
		{
			"bufferView":10,
			"componentType":5126,
			"count":184,
			"type":"VEC2"
		},
		{
			"bufferView":11,
			"componentType":5123,
			"count":414,
			"type":"SCALAR"
		},
		{
			"bufferView":12,
			"componentType":5126,
			"count":10564,
			"max":[
				1629.22509765625,
				490,
				2167.827880859375
			],
			"min":[
				38.22509765625,
				290,
				77.82795715332031
			],
			"type":"VEC3"
		},
		{
			"bufferView":13,
			"componentType":5126,
			"count":10564,
			"type":"VEC3"
		},
		{
			"bufferView":14,
			"componentType":5126,
			"count":10564,
			"type":"VEC2"
		},
		{
			"bufferView":15,
			"componentType":5123,
			"count":11502,
			"type":"SCALAR"
		}
	],
	"bufferViews":[
		{
			"buffer":0,
			"byteLength":911580,
			"byteOffset":0,
			"target":34962
		},
		{
			"buffer":0,
			"byteLength":911580,
			"byteOffset":911580,
			"target":34962
		},
		{
			"buffer":0,
			"byteLength":607720,
			"byteOffset":1823160,
			"target":34962
		},
		{
			"buffer":0,
			"byteLength":347136,
			"byteOffset":2430880,
			"target":34963
		},
		{
			"buffer":0,
			"byteLength":768,
			"byteOffset":2778016,
			"target":34962
		},
		{
			"buffer":0,
			"byteLength":768,
			"byteOffset":2778784,
			"target":34962
		},
		{
			"buffer":0,
			"byteLength":512,
			"byteOffset":2779552,
			"target":34962
		},
		{
			"buffer":0,
			"byteLength":288,
			"byteOffset":2780064,
			"target":34963
		},
		{
			"buffer":0,
			"byteLength":2208,
			"byteOffset":2780352,
			"target":34962
		},
		{
			"buffer":0,
			"byteLength":2208,
			"byteOffset":2782560,
			"target":34962
		},
		{
			"buffer":0,
			"byteLength":1472,
			"byteOffset":2784768,
			"target":34962
		},
		{
			"buffer":0,
			"byteLength":828,
			"byteOffset":2786240,
			"target":34963
		},
		{
			"buffer":0,
			"byteLength":126768,
			"byteOffset":2787068,
			"target":34962
		},
		{
			"buffer":0,
			"byteLength":126768,
			"byteOffset":2913836,
			"target":34962
		},
		{
			"buffer":0,
			"byteLength":84512,
			"byteOffset":3040604,
			"target":34962
		},
		{
			"buffer":0,
			"byteLength":23004,
			"byteOffset":3125116,
			"target":34963
		}
	],
	"samplers":[
		{
			"magFilter":9729,
			"minFilter":9987
		}
	],
	"buffers":[
		{
			"byteLength":3148120,
			"uri":"opklapbed.bin"
		}
	]
}
